<?xml version="1.0" encoding="UTF-8" standalone="no"?>
<!-- Created with Inkscape (http://www.inkscape.org/) -->

<svg
   xmlns:dc="http://purl.org/dc/elements/1.1/"
   xmlns:cc="http://creativecommons.org/ns#"
   xmlns:rdf="http://www.w3.org/1999/02/22-rdf-syntax-ns#"
   xmlns:svg="http://www.w3.org/2000/svg"
   xmlns="http://www.w3.org/2000/svg"
   xmlns:xlink="http://www.w3.org/1999/xlink"
   xmlns:sodipodi="http://sodipodi.sourceforge.net/DTD/sodipodi-0.dtd"
   xmlns:inkscape="http://www.inkscape.org/namespaces/inkscape"
   width="31.858641mm"
   height="31.827839mm"
   viewBox="0 0 112.88494 112.7758"
   id="svg2"
   version="1.1"
   inkscape:version="0.91 r13725"
   sodipodi:docname="Pferd-coloured.svg">
  <title
     id="title4148">horse - coloured</title>
  <defs
     id="defs4">
    <linearGradient
       inkscape:collect="always"
       id="linearGradient6576">
      <stop
         style="stop-color:#a4a4a4;stop-opacity:1"
         offset="0"
         id="stop6578" />
      <stop
         style="stop-color:#434343;stop-opacity:1"
         offset="1"
         id="stop6580" />
    </linearGradient>
    <linearGradient
       inkscape:collect="always"
       id="linearGradient6556">
      <stop
         style="stop-color:#edd1d1;stop-opacity:1"
         offset="0"
         id="stop6558" />
      <stop
         id="stop6564"
         offset="0.41025659"
         style="stop-color:#6f1111;stop-opacity:1" />
      <stop
         style="stop-color:#5e0000;stop-opacity:1"
         offset="1"
         id="stop6560" />
    </linearGradient>
    <linearGradient
       inkscape:collect="always"
       id="linearGradient6534">
      <stop
         style="stop-color:#b7a89d;stop-opacity:1"
         offset="0"
         id="stop6536" />
      <stop
         id="stop6544"
         offset="0.5361231"
         style="stop-color:#e6c8b2;stop-opacity:1" />
      <stop
         id="stop6542"
         offset="0.62508494"
         style="stop-color:#ffc9a3;stop-opacity:1;" />
      <stop
         style="stop-color:#ffc9a3;stop-opacity:1"
         offset="1"
         id="stop6538" />
    </linearGradient>
    <linearGradient
       inkscape:collect="always"
       id="linearGradient6494">
      <stop
         style="stop-color:#6b2d09;stop-opacity:1;"
         offset="0"
         id="stop6496" />
      <stop
         style="stop-color:#422513;stop-opacity:1"
         offset="1"
         id="stop6498" />
    </linearGradient>
    <linearGradient
       inkscape:collect="always"
       id="linearGradient6462">
      <stop
         style="stop-color:#370000;stop-opacity:1;"
         offset="0"
         id="stop6464" />
      <stop
         style="stop-color:#220000;stop-opacity:1"
         offset="1"
         id="stop6466" />
    </linearGradient>
    <pattern
       inkscape:collect="always"
       xlink:href="#Polkadots-large"
       id="pattern6297"
       patternTransform="scale(0.98438853,1.0197439)" />
    <pattern
       inkscape:collect="always"
       xlink:href="#Polkadots-large"
       id="pattern6015"
       patternTransform="matrix(0.67824856,0,0,0.9118272,0.88961036,0.5127164)" />
    <pattern
       inkscape:stockid="Polka dots, large"
       id="Polkadots-large"
       patternTransform="translate(0,0) scale(10,10)"
       height="10"
       width="10"
       patternUnits="userSpaceOnUse"
       inkscape:collect="always">
      <circle
         id="circle5705"
         r="0.45"
         cy="0.810"
         cx="2.567"
         style="fill:black;stroke:none" />
      <circle
         id="circle5707"
         r="0.45"
         cy="2.33"
         cx="3.048"
         style="fill:black;stroke:none" />
      <circle
         id="circle5709"
         r="0.45"
         cy="2.415"
         cx="4.418"
         style="fill:black;stroke:none" />
      <circle
         id="circle5711"
         r="0.45"
         cy="3.029"
         cx="1.844"
         style="fill:black;stroke:none" />
      <circle
         id="circle5713"
         r="0.45"
         cy="1.363"
         cx="6.08"
         style="fill:black;stroke:none" />
      <circle
         id="circle5715"
         r="0.45"
         cy="4.413"
         cx="5.819"
         style="fill:black;stroke:none" />
      <circle
         id="circle5717"
         r="0.45"
         cy="4.048"
         cx="4.305"
         style="fill:black;stroke:none" />
      <circle
         id="circle5719"
         r="0.45"
         cy="3.045"
         cx="5.541"
         style="fill:black;stroke:none" />
      <circle
         id="circle5721"
         r="0.45"
         cy="5.527"
         cx="4.785"
         style="fill:black;stroke:none" />
      <circle
         id="circle5723"
         r="0.45"
         cy="5.184"
         cx="2.667"
         style="fill:black;stroke:none" />
      <circle
         id="circle5725"
         r="0.45"
         cy="1.448"
         cx="7.965"
         style="fill:black;stroke:none" />
      <circle
         id="circle5727"
         r="0.45"
         cy="5.049"
         cx="7.047"
         style="fill:black;stroke:none" />
      <circle
         id="circle5729"
         r="0.45"
         cy="0.895"
         cx="4.340"
         style="fill:black;stroke:none" />
      <circle
         id="circle5731"
         r="0.45"
         cy="0.340"
         cx="7.125"
         style="fill:black;stroke:none" />
      <circle
         id="circle5733"
         r="0.45"
         cy="1.049"
         cx="9.553"
         style="fill:black;stroke:none" />
      <circle
         id="circle5735"
         r="0.45"
         cy="2.689"
         cx="7.006"
         style="fill:black;stroke:none" />
      <circle
         id="circle5737"
         r="0.45"
         cy="2.689"
         cx="8.909"
         style="fill:black;stroke:none" />
      <circle
         id="circle5739"
         r="0.45"
         cy="4.407"
         cx="9.315"
         style="fill:black;stroke:none" />
      <circle
         id="circle5741"
         r="0.45"
         cy="3.870"
         cx="7.820"
         style="fill:black;stroke:none" />
      <circle
         id="circle5743"
         r="0.45"
         cy="5.948"
         cx="8.270"
         style="fill:black;stroke:none" />
      <circle
         id="circle5745"
         r="0.45"
         cy="7.428"
         cx="7.973"
         style="fill:black;stroke:none" />
      <circle
         id="circle5747"
         r="0.45"
         cy="8.072"
         cx="9.342"
         style="fill:black;stroke:none" />
      <circle
         id="circle5749"
         r="0.45"
         cy="9.315"
         cx="8.206"
         style="fill:black;stroke:none" />
      <circle
         id="circle5751"
         r="0.45"
         cy="9.475"
         cx="9.682"
         style="fill:black;stroke:none" />
      <circle
         id="circle5753"
         r="0.45"
         cy="6.186"
         cx="9.688"
         style="fill:black;stroke:none" />
      <circle
         id="circle5755"
         r="0.45"
         cy="6.296"
         cx="3.379"
         style="fill:black;stroke:none" />
      <circle
         id="circle5757"
         r="0.45"
         cy="8.204"
         cx="2.871"
         style="fill:black;stroke:none" />
      <circle
         id="circle5759"
         r="0.45"
         cy="8.719"
         cx="4.59"
         style="fill:black;stroke:none" />
      <circle
         id="circle5761"
         r="0.45"
         cy="9.671"
         cx="3.181"
         style="fill:black;stroke:none" />
      <circle
         id="circle5763"
         r="0.45"
         cy="7.315"
         cx="5.734"
         style="fill:black;stroke:none" />
      <circle
         id="circle5765"
         r="0.45"
         cy="6.513"
         cx="6.707"
         style="fill:black;stroke:none" />
      <circle
         id="circle5767"
         r="0.45"
         cy="9.670"
         cx="5.730"
         style="fill:black;stroke:none" />
      <circle
         id="circle5769"
         r="0.45"
         cy="8.373"
         cx="6.535"
         style="fill:black;stroke:none" />
      <circle
         id="circle5771"
         r="0.45"
         cy="7.154"
         cx="4.37"
         style="fill:black;stroke:none" />
      <circle
         id="circle5773"
         r="0.45"
         cy="7.25"
         cx="0.622"
         style="fill:black;stroke:none" />
      <circle
         id="circle5775"
         r="0.45"
         cy="5.679"
         cx="0.831"
         style="fill:black;stroke:none" />
      <circle
         id="circle5777"
         r="0.45"
         cy="8.519"
         cx="1.257"
         style="fill:black;stroke:none" />
      <circle
         id="circle5779"
         r="0.45"
         cy="6.877"
         cx="1.989"
         style="fill:black;stroke:none" />
      <circle
         id="circle5781"
         r="0.45"
         cy="3.181"
         cx="0.374"
         style="fill:black;stroke:none" />
      <circle
         id="circle5783"
         r="0.45"
         cy="1.664"
         cx="1.166"
         style="fill:black;stroke:none" />
      <circle
         id="circle5785"
         r="0.45"
         cy="0.093"
         cx="1.151"
         style="fill:black;stroke:none" />
      <circle
         id="circle5787"
         r="0.45"
         cy="10.093"
         cx="1.151"
         style="fill:black;stroke:none" />
      <circle
         id="circle5789"
         r="0.45"
         cy="4.451"
         cx="1.302"
         style="fill:black;stroke:none" />
      <circle
         id="circle5791"
         r="0.45"
         cy="3.763"
         cx="3.047"
         style="fill:black;stroke:none" />
    </pattern>
    <pattern
       inkscape:collect="always"
       xlink:href="#Strips2_1-9"
       id="pattern6397-4"
       patternTransform="matrix(0.84690524,-0.31269932,0.82645242,2.2383383,61.500003,2.2499997)" />
    <pattern
       inkscape:stockid="Stripes 2:1"
       id="Strips2_1-9"
       patternTransform="translate(0,0) scale(10,10)"
       height="1"
       width="1.5"
       patternUnits="userSpaceOnUse"
       inkscape:collect="always">
      <rect
         id="rect5318-7"
         height="2"
         width="1"
         y="-0.5"
         x="0"
         style="fill:black;stroke:none" />
    </pattern>
    <radialGradient
       inkscape:collect="always"
       xlink:href="#linearGradient6462"
       id="radialGradient6468"
       cx="87.029343"
       cy="7.9039869"
       fx="87.029343"
       fy="7.9039869"
       r="1.6754273"
       gradientTransform="matrix(1,0,0,2.0914175,0,-8.6265496)"
       gradientUnits="userSpaceOnUse" />
    <pattern
       inkscape:collect="always"
       xlink:href="#Strips1_2-1"
       id="pattern6205-4"
       patternTransform="matrix(0.47855323,-0.47855332,4.0266508,4.0266501,-7.7499995,-88.750001)" />
    <pattern
       inkscape:stockid="Stripes 1:2"
       id="Strips1_2-1"
       patternTransform="translate(0,0) scale(10,10)"
       height="1"
       width="3"
       patternUnits="userSpaceOnUse"
       inkscape:collect="always">
      <rect
         id="rect5267-2"
         height="2"
         width="1"
         y="-0.5"
         x="0"
         style="fill:black;stroke:none" />
    </pattern>
    <linearGradient
       inkscape:collect="always"
       xlink:href="#linearGradient6494"
       id="linearGradient6500"
       x1="25.344006"
       y1="68.154633"
       x2="25.194746"
       y2="57.194473"
       gradientUnits="userSpaceOnUse" />
    <pattern
       inkscape:collect="always"
       xlink:href="#Strips1_2-3"
       id="pattern6109-2"
       patternTransform="matrix(0.44812907,-0.3734409,3.040876,3.6490511,37.25,-70.499998)" />
    <pattern
       inkscape:stockid="Stripes 1:2"
       id="Strips1_2-3"
       patternTransform="translate(0,0) scale(10,10)"
       height="1"
       width="3"
       patternUnits="userSpaceOnUse"
       inkscape:collect="always">
      <rect
         id="rect5267-6"
         height="2"
         width="1"
         y="-0.5"
         x="0"
         style="fill:black;stroke:none" />
    </pattern>
    <linearGradient
       inkscape:collect="always"
       xlink:href="#linearGradient6494"
       id="linearGradient6532"
       x1="55.770893"
       y1="75.134193"
       x2="58.647236"
       y2="69.388954"
       gradientUnits="userSpaceOnUse" />
    <radialGradient
       inkscape:collect="always"
       xlink:href="#linearGradient6534"
       id="radialGradient6540"
       cx="96.001854"
       cy="32.272316"
       fx="96.001854"
       fy="32.272316"
       r="5.4953575"
       gradientTransform="matrix(2.7514779,-0.97809839,0.94457532,2.6571745,-198.62876,48.647238)"
       gradientUnits="userSpaceOnUse" />
    <radialGradient
       inkscape:collect="always"
       xlink:href="#linearGradient6556"
       id="radialGradient6562"
       cx="90.188606"
       cy="19.794149"
       fx="90.188606"
       fy="19.794149"
       r="1.21875"
       gradientTransform="matrix(0.58127118,0.82677694,-1.5313756,1.0766441,68.044489,-76.390399)"
       gradientUnits="userSpaceOnUse" />
    <radialGradient
       inkscape:collect="always"
       xlink:href="#linearGradient6576"
       id="radialGradient6582"
       cx="8.4852486"
       cy="94.875046"
       fx="8.4852486"
       fy="94.875046"
       r="4.053216"
       gradientTransform="matrix(1,0,0,0.64764006,0,33.718701)"
       gradientUnits="userSpaceOnUse" />
    <radialGradient
       inkscape:collect="always"
       xlink:href="#linearGradient6576"
       id="radialGradient6582-1"
       cx="8.4852486"
       cy="94.875046"
       fx="8.4852486"
       fy="94.875046"
       r="4.053216"
       gradientTransform="matrix(1,0,0,0.64764006,27.312033,34.778063)"
       gradientUnits="userSpaceOnUse" />
    <radialGradient
       inkscape:collect="always"
       xlink:href="#linearGradient6576"
       id="radialGradient6582-7"
       cx="8.4852486"
       cy="94.875046"
       fx="8.4852486"
       fy="94.875046"
       r="4.053216"
       gradientTransform="matrix(1,0,0,0.64764006,43.045159,36.192276)"
       gradientUnits="userSpaceOnUse" />
    <radialGradient
       inkscape:collect="always"
       xlink:href="#linearGradient6576"
       id="radialGradient6582-6"
       cx="8.4852486"
       cy="94.875046"
       fx="8.4852486"
       fy="94.875046"
       r="4.053216"
       gradientTransform="matrix(1,0,0,0.64764006,65.584188,40.25814)"
       gradientUnits="userSpaceOnUse" />
  </defs>
  <sodipodi:namedview
     id="base"
     pagecolor="#ffffff"
     bordercolor="#666666"
     borderopacity="1.0"
     inkscape:pageopacity="0.0"
     inkscape:pageshadow="2"
     inkscape:zoom="2"
     inkscape:cx="72.017262"
     inkscape:cy="14.275846"
     inkscape:document-units="mm"
     inkscape:current-layer="layer2"
     showgrid="false"
     borderlayer="true"
     inkscape:window-width="1388"
     inkscape:window-height="1019"
     inkscape:window-x="533"
     inkscape:window-y="107"
     inkscape:window-maximized="0"
     inkscape:snap-global="true"
     showguides="true"
     fit-margin-top="1"
     fit-margin-right="1"
     fit-margin-bottom="1"
     fit-margin-left="1">
    <inkscape:grid
       type="xygrid"
       id="grid6391"
       originx="3.4080122"
       originy="3.237581" />
  </sodipodi:namedview>
  <metadata
     id="metadata7">
    <rdf:RDF>
      <cc:Work
         rdf:about="">
        <dc:format>image/svg+xml</dc:format>
        <dc:type
           rdf:resource="http://purl.org/dc/dcmitype/StillImage" />
        <dc:title>horse - coloured</dc:title>
        <dc:date>2015-06-15</dc:date>
        <dc:creator>
          <cc:Agent>
            <dc:title>Frank Tremmel</dc:title>
          </cc:Agent>
        </dc:creator>
        <dc:subject>
          <rdf:Bag>
            <rdf:li>horse</rdf:li>
            <rdf:li>animal</rdf:li>
            <rdf:li>Pferd</rdf:li>
            <rdf:li>Tier</rdf:li>
            <rdf:li>line art</rdf:li>
            <rdf:li>outline</rdf:li>
          </rdf:Bag>
        </dc:subject>
        <dc:description>coloured line art horse</dc:description>
        <cc:license
           rdf:resource="http://creativecommons.org/publicdomain/zero/1.0/" />
      </cc:Work>
      <cc:License
         rdf:about="http://creativecommons.org/publicdomain/zero/1.0/">
        <cc:permits
           rdf:resource="http://creativecommons.org/ns#Reproduction" />
        <cc:permits
           rdf:resource="http://creativecommons.org/ns#Distribution" />
        <cc:permits
           rdf:resource="http://creativecommons.org/ns#DerivativeWorks" />
      </cc:License>
    </rdf:RDF>
  </metadata>
  <g
     inkscape:groupmode="layer"
     id="layer2"
     inkscape:label="Ebene 2"
     style="display:inline"
     transform="translate(3.4080124,3.2390098)">
    <path
       style="fill:#f5bd59;fill-opacity:1;fill-rule:evenodd;stroke:none;stroke-width:0.29055119;stroke-linecap:butt;stroke-linejoin:miter;stroke-miterlimit:4;stroke-dasharray:none;stroke-opacity:1"
       d="M 19.205177,25.60318 C 18.488185,24.834216 17.525204,24.311241 15.81425,24.53624 l -2.032932,1.85615 -3.005204,0.97227 C 9.635626,29.2684 8.42496,30.54054 7.505745,34.43573 L 5.384424,42.12552 5.119259,48.48948 3.528269,54.58827 2.821162,64.92971 1.141784,71.55884 0.16951201,82.60738 c 0.52988,-1.26285 0.830435,-0.46178 1.59098999,-3.8007 l 0.265165,4.06587 c 0.377482,-1.14726 0.520325,-3.46772 1.325825,-2.47488 l 0.53033,2.2981 c 1.136662,0.57743 1.084624,-2.80747 1.590991,-4.33103 0.296152,1.66236 0.16692,3.9628 1.325825,4.33103 0.412479,-1.06066 0.824958,-0.94281 1.237437,0.35355 1.548968,1.50019 1.47094,0.39718 1.944544,0.17678 L 9.715454,80.2209 c 0.610153,0.99796 0.993565,2.67615 2.032932,2.38648 0.705445,-1.05008 0.897076,-3.3847 1.149048,-5.56847 l -0.618718,-5.83363 -0.441942,-5.03813 0,-5.03814 0.972272,-6.27557 -1.679379,-10.07627 -0.353553,-10.07627 1.414213,-4.15426 c 1.624144,-1.393473 3.248289,-2.752691 4.872433,-2.151891 z"
       id="path4393-2"
       inkscape:connector-curvature="0"
       sodipodi:nodetypes="ccccccccccccccccccccccccccccccc" />
    <path
       style="color:#000000;font-style:normal;font-variant:normal;font-weight:normal;font-stretch:normal;font-size:medium;line-height:normal;font-family:sans-serif;text-indent:0;text-align:start;text-decoration:none;text-decoration-line:none;text-decoration-style:solid;text-decoration-color:#000000;letter-spacing:normal;word-spacing:normal;text-transform:none;direction:ltr;block-progression:tb;writing-mode:lr-tb;baseline-shift:baseline;text-anchor:start;white-space:normal;clip-rule:nonzero;display:inline;overflow:visible;visibility:visible;opacity:1;isolation:auto;mix-blend-mode:normal;color-interpolation:sRGB;color-interpolation-filters:linearRGB;solid-color:#000000;solid-opacity:1;fill:#7a540f;fill-opacity:1;fill-rule:evenodd;stroke:none;stroke-width:1px;stroke-linecap:butt;stroke-linejoin:miter;stroke-miterlimit:4;stroke-dasharray:none;stroke-dashoffset:0;stroke-opacity:1;color-rendering:auto;image-rendering:auto;shape-rendering:auto;text-rendering:auto;enable-background:accumulate"
       d="m 16.958984,23.992188 c -0.957994,-0.03374 -1.898522,0.163092 -2.193359,0.441406 -0.424259,0.400483 -0.766117,0.722526 -1.111328,0.988281 -0.39502,0.3041 -0.939764,0.511445 -1.523438,0.753906 -0.583673,0.242461 -1.403593,0.339334 -1.890625,0.892578 -2.835376,3.220853 -3.8824372,9.154798 -4.935547,13.097657 -0.732545,2.74266 -0.114944,5.715415 -0.613281,8.335937 -0.358748,1.886486 -1.359011,3.791242 -1.732422,5.777344 -0.683378,3.634765 -0.308494,7.469972 -0.763672,10.982422 -0.297394,2.294893 -1.32630601,4.421941 -1.60937501,6.888672 -0.344109,2.99866 -0.444887,8.017917 -0.447265,8.21875 -0.02848,2.404465 0.119324,2.958033 0.589844,0.123047 C 0.76139599,80.29405 1.426512,75.267066 1.767578,72.294922 2.030884,70.000395 3.087736,67.84849 3.40625,65.390625 3.879008,61.742512 3.634383,57.892984 4.285156,54.431641 4.63985,52.545091 5.296414,50.672142 5.673828,48.6875 c 0.5258375,-2.765132 0.446793,-5.553578 1.128906,-8.107422 1.066619,-3.993438 1.782542,-9.719153 4.375,-12.664062 0.309849,-0.351973 0.779374,-0.585207 1.335938,-0.816407 0.556564,-0.231199 1.191347,-0.453192 1.751953,-0.884765 0.467654,-0.360016 0.807417,-0.678318 1.087891,-0.972656 0.328743,-0.344994 2.311733,-1.038994 3.05664,-0.439454 l 0.15625,-0.46875 c -0.451371,-0.218077 -1.032625,-0.32155 -1.607422,-0.341796 z m -3.669922,5.408203 c -0.153179,0.04225 -0.515976,0.289107 -1.15625,0.767578 -0.33393,0.249543 -0.47959,0.51611 -0.617187,0.886719 -0.137597,0.370605 -0.439579,0.765489 -0.542969,1.300781 -0.206779,1.070584 -0.456371,2.541242 -0.560547,4.019531 -0.208351,2.956579 0.06011,6.262154 0.351563,8.28125 0.812868,5.631287 1.73316,7.744566 1.496094,10.46875 -0.02311,0.265579 -0.124361,0.647147 -0.175782,0.908203 -0.105162,0.533884 -0.242483,1.244903 -0.378906,2.027344 -0.272847,1.564883 -0.542305,3.402108 -0.519531,4.748047 0.03204,1.893824 0.268561,3.461548 0.412109,5.271484 0.166864,2.103911 0.272259,4.071042 0.539063,6.148438 0.354485,2.760115 0.160473,5.168046 -0.302735,7.257812 -0.207865,0.937787 0.145067,1.273242 0.529297,0.16211 0.751659,-2.173683 1.414136,-4.656042 1.046875,-7.515626 -0.26086,-2.031114 -0.367053,-3.919525 -0.535156,-6.039062 -0.146714,-1.849856 -0.377423,-3.327155 -0.408203,-5.146484 -0.02017,-1.191763 0.172615,-2.454472 0.441406,-3.996094 0.134396,-0.770811 0.360321,-1.787979 0.470703,-2.31836 0.07129,-0.342556 0.166442,-1.132881 0.191406,-1.435546 0.25718,-3.11798 -1.087536,-6.914514 -1.595703,-10.554688 -0.260522,-1.866217 -0.675272,-5.231896 -0.470703,-8.134766 0.102283,-1.451433 0.22581,-2.801624 0.419922,-3.80664 0.09706,-0.502508 0.173392,-0.982332 0.279297,-1.267578 0.105905,-0.285246 0.377969,-0.570897 0.425781,-0.648438 0.589192,-0.955539 0.915455,-1.455184 0.660156,-1.384765 z m -3.068359,3.410156 c -0.119768,-0.0094 -0.329382,0.144588 -0.460937,0.328125 -0.714383,0.996656 -1.136493,2.989916 -1.46875,5.148437 -0.332257,2.158522 -0.618181,4.396584 -0.88086,5.521485 -0.53153,2.276238 -0.8892955,4.496389 -1.0839841,6.828125 -0.1878435,2.249753 -0.6883869,5.494822 -1.1894529,7.695312 -0.656307,2.882249 -0.286954,5.953921 -0.94336,8.576172 -0.489621,1.955973 -1.222849,3.94388 -1.402343,6.078125 -0.110106,1.309186 0.239601,3.356761 0.392578,5.111328 0.152976,1.754568 0.445411,2.964443 0.488281,3.167969 0.388794,1.845816 0.529766,1.534273 0.429687,-0.0918 C 4.088782,80.966229 3.79968,79.494447 3.648437,77.759763 3.497195,76.025079 3.315494,74.219096 3.412109,73.070309 3.576584,71.114656 4.342579,69.17786 4.849609,67.152341 5.569194,64.277698 5.13454,61.260005 5.736328,58.617185 6.2524828,56.350431 6.753895,53.036652 6.947266,50.7207 c 0.190605,-2.282838 0.603546,-4.45051 1.125,-6.683594 0.291747,-1.249386 0.56518,-3.522465 0.894531,-5.662109 0.329351,-2.139644 0.820363,-4.203865 1.171875,-4.914062 0.231722,-0.468174 0.201799,-0.640984 0.08203,-0.650391 z m -0.347656,8.535156 c -0.07244,0.01863 -0.188074,0.327638 -0.349609,0.869141 -0.162588,0.545022 -0.205113,0.944708 -0.332032,1.625 -0.175407,0.940192 -0.297937,1.365146 -0.408203,2.236328 -0.22053,1.742364 -0.529013,3.577813 -0.671875,4.08789 -0.607432,2.168797 -0.17422,4.620211 -0.394531,6.582032 -0.19665,1.751125 -0.493182,3.189144 -0.816406,4.953125 -0.110497,0.603029 -0.01081,1.481928 0.06836,2.4375 0.07916,0.955572 0.153251,1.956716 0.115234,2.33789 -0.216192,2.167656 -0.5053119,4.378336 -0.6328125,6.587891 -0.1612963,2.795226 0.037972,8.487551 0.058594,8.652344 0.1660156,1.326686 0.3320315,1.070787 0.4980465,-0.01367 0.02513,-0.164166 -0.03165,-5.674536 0.128907,-8.457031 0.124681,-2.160705 0.475111,-4.48166 0.693359,-6.669922 0.06193,-0.620933 -0.161356,-1.692404 -0.240234,-2.644531 -0.07888,-0.952129 -0.0605,-2.064586 -0.01758,-2.298829 0.321053,-1.752131 0.623899,-2.909741 0.826172,-4.710937 0.244727,-2.179242 -0.153151,-4.892445 0.363281,-6.736328 0.19996,-0.713945 0.477545,-2.215598 0.701172,-3.982422 0.111813,-0.883412 0.160447,-1.760994 0.257812,-2.47461 0.09212,-0.675148 0.227805,-0.942025 0.240235,-1.503906 0.0138,-0.623828 -0.01545,-0.895584 -0.08789,-0.876953 z m 0.404297,6.150391 c -0.08881,-0.03047 -0.135986,0.271586 -0.134766,0.617187 7.71e-4,0.218354 0.371686,4.881823 0.220703,7.205078 -0.140902,2.168202 -1.300644,4.60724 -1.136718,7.134766 0.123034,1.897037 0.565874,3.885538 0.757812,5.703125 0.230102,2.17898 -0.309781,4.37765 -0.628906,6.697266 -0.102874,0.747753 -4.4e-4,1.442922 0.09961,2.013672 0.100049,0.570745 0.07164,1.330179 0.02539,1.925781 -0.09863,1.270086 0.202324,3.131551 0.28125,3.294922 0.752163,1.556936 0.57174,0.216975 0.529297,-0.126953 -0.14352,-1.162967 -0.398349,-2.290859 -0.314454,-3.371094 0.05795,-0.746241 0.186021,-1.461689 0.08789,-2.021485 -0.09813,-0.559795 -0.174311,-1.055054 -0.09375,-1.640625 0.309333,-2.248434 0.886951,-4.532851 0.632813,-6.939453 -0.19806,-1.875562 -0.574091,-3.915749 -0.691407,-5.724609 -0.137952,-2.12706 1.100142,-4.332013 1.261719,-6.81836 0.166065,-2.555384 -0.639674,-7.260995 -0.693359,-7.472656 -0.0813,-0.320513 -0.149842,-0.458282 -0.203125,-0.476562 z M 6.1855469,63.105469 c -0.085022,0.0039 -0.1620627,0.320658 -0.1445313,0.882812 0.00453,0.145209 -0.092812,1.336658 -0.2812496,2.552735 -0.184237,1.188964 -0.554122,2.327759 -0.824219,2.835937 -0.591816,1.113479 -0.773726,2.621225 -0.804688,3.720703 -0.05967,2.118799 1.006227,3.85218 1.128907,5.619141 0.07148,1.029592 -0.245048,3.325105 -0.28711,3.441406 -0.317189,0.877041 0.05225,0.711353 0.242188,0.0957 0.03646,-0.118177 0.6202216,-2.28103 0.53125,-3.5625 -0.144661,-2.083559 -1.062657,-3.912879 -1.013672,-5.652344 0.02471,-0.877382 0.06468,-2.45951 0.740234,-3.482421 0.310801,-0.470606 0.7508325,-1.556623 0.917969,-2.763672 0.1683344,-1.215701 -0.00595,-2.534674 -0.00977,-2.695313 -0.01637,-0.688297 -0.1102908,-0.996111 -0.1953125,-0.992187 z m 2.2128911,0.691406 c -0.09124,0.02625 -0.08265,0.603993 0.0625,1.691406 0.02739,0.205196 -0.04857,3.545831 -0.08594,5.173828 -0.06009,2.618164 -0.934162,5.351745 -0.951172,8.201172 -0.0081,1.361508 0.266751,2.444202 0.341797,2.628907 0.679339,1.672016 0.851465,2.045266 0.414062,-0.220704 -0.03779,-0.195756 -0.186339,-1.229726 -0.179687,-2.34375 0.0156,-2.613261 0.934746,-5.399005 1,-8.242187 0.04227,-1.841701 -0.0208,-5.065649 -0.06641,-5.267578 C 8.680165,64.296004 8.489671,63.770629 8.398431,63.796875 Z M 2.517578,71.75 c -0.08666,-0.02145 -0.218019,0.488854 -0.330078,0.763672 -0.05334,0.130808 -0.373657,2.449961 -0.419922,3.71875 -0.07867,2.157475 0.542753,5.243774 0.462891,5.71875 -0.24137,1.435539 0.133145,0.701857 0.314453,0.002 0.206605,-0.797557 -0.32116,-3.614366 -0.244141,-5.726563 0.04461,-1.223512 0.309839,-3.556006 0.308594,-3.697265 -0.005,-0.56175 -0.0398,-0.766426 -0.0918,-0.779297 z"
       id="path4175"
       inkscape:connector-curvature="0" />
    <path
       style="fill:#8b3c0c;fill-opacity:1;fill-rule:evenodd;stroke:#0000ff;stroke-width:0.29055119;stroke-linecap:butt;stroke-linejoin:miter;stroke-miterlimit:4;stroke-dasharray:none;stroke-opacity:1"
       d="M 95.262603,1.1712356 C 95.176753,1.1752256 93.25,3.2148438 93.25,3.2148438 L 91.328125,3.9003906 C 90.835145,4.7187222 90.342427,4.9131435 89.65533,5.378333 L 89.265165,2.8568864 88.698261,1.0932145 c -1.579202,0.521527 -2.248806,2.0283925 -3.278339,2.8247543 l -1.59152,2.649309 C 83.184533,6.4241159 80.764151,5.7153478 77.75,6.2988281 l -7.620558,3.422335 2.150888,1.5732229 c 0.628708,0.53099 -1.946539,2.133011 -4.09283,3.316942 l -2.745558,3.09467 1.672335,1.4375 -5.801777,2.21783 0.01517,1.78217 -5.202665,0.84283 -2.615234,2.269531 c -1.199993,0.125833 -3.197194,-0.376184 -4.387292,-0.190983 l -12.72745,-3.006818 c -4.233017,-1.090714 -8.4009,-1.279712 -11.932138,-0.265089 -3.020928,0.905558 -5.137984,2.835515 -7.512904,3.889818 -4.252628,3.086271 -4.908802,4.277127 -6.069128,6.616041 l -0.621093,5.939453 0.486328,5.615235 -0.0918,8.972656 -2.0820314,8.466797 -2.0546875,7.003906 c -0.7862274,3.430359 -0.9041228,6.001428 -0.9160156,8.714844 l -0.9384199,4.178157 c 0.063352,1.428307 -0.8344958,3.055487 -1.5029864,4.24372 l 0.1777344,7.158203 0.6182211,4.155714 c 2.7485699,0.362084 4.7060473,0.904649 6.9833413,0.795458 L 8.4628906,88.820312 8.9335938,83.697266 c 0.6828931,-2.484453 0.9041716,-4.793674 1.5898442,-6.544922 l 2.130859,-4.708985 c -1.694556,2.861112 0.735949,-2.622099 1.466756,-5.189451 l 5.921875,-9.8125 c 0.503568,-0.517695 1.632602,-1.367334 2.080078,-1.978515 l 0.482422,6.220703 -2.253907,8.652344 2.847657,8.417968 2.433593,9.347656 4.216797,5.88086 0.253907,3.908203 7.792968,1.271484 0,-1.857421 c -1.67359,-2.90496 -3.309784,-5.984175 -5.92574,-8.417971 -1.995114,-5.604785 -2.933478,-8.524735 -4.061467,-11.46921 l -0.177275,-2.828163 c 1.329673,-1.263822 0.992316,-3.437136 1.237784,-5.568322 l 2.829082,-5.745633 1.486328,-4.636719 c 2.951617,1.663025 9.262609,3.61543 12.214226,4.284199 l 11.046875,-0.08996 c -1.471959,3.349751 -2.837427,7.572145 -4.32946,11.137789 l -3.183594,9.634766 c -2.296349,4.253769 -1.55319,5.749503 -2.386183,8.748967 l -0.705614,4.24322 0.794538,3.447237 c 2.268634,1.12115 2.416688,1.31642 4.685319,1.5029 1.521763,-0.16114 2.351047,-0.15985 2.826784,-0.53021 l -1.590764,-8.48484 0.883733,-6.099149 0.443359,-2.917969 c 2.398915,-3.287473 2.747375,-3.269226 4.687311,-7.933639 0.206585,0.375759 0.93363,-1.807821 2.294614,-3.997617 l 0.619675,7.689566 c 0.871623,1.802016 2.777547,5.073849 3.09283,6.805299 0.269319,2.949309 0.657303,5.987616 1.856924,9.634652 l 1.502413,3.801776 c -0.03881,1.889831 0.75806,3.361831 1.148438,5.037071 1.59099,1.61112 3.624388,0.42697 5.21538,0.53021 l 2.916822,-0.53024 -1.413949,-2.82858 -1.149434,-3.270038 c -2.99547,-3.499987 -3.788702,-4.927852 -5.038602,-7.336857 -0.400614,-2.029412 -1.377941,-3.94183 -0.707031,-6.185547 l 0.707031,-5.304688 c -0.950108,-3.902061 -1.684215,-7.123415 -1.768001,-12.108379 0.543379,-2.374339 0.02253,-5.05354 2.121516,-6.983418 2.565568,-1.381869 3.870684,-4.337953 5.56836,-6.804687 1.199526,-2.6786 1.784452,-6.415982 1.855544,-9.545955 1.414213,-1.319356 2.122821,-2.112448 3.537034,-5.305072 0.972272,-1.976444 1.943744,-4.594582 2.916016,-6.363817 l 5.392118,2.830041 c 2.197651,0.294638 3.625937,1.954814 4.242225,4.419002 0.844495,1.974321 1.070902,2.618991 2.386145,3.181067 L 99.76861,42.50337 c 1.45087,-0.01268 2.49554,0.707651 3.27045,-0.882276 2.24127,-1.862936 1.44242,-3.389029 1.76758,-5.039063 l -2.91602,-6.451172 c -1.38916,-3.13355 -3.027242,-6.72314 -2.652302,-10.077205 0.325282,-1.502602 0.886142,-2.121327 -0.883733,-3.623929 l -1.549898,-2.501991 c 0.978809,1.704577 0.889561,0.290058 1.132812,-1.128906 C 98.140966,11.13625 97.946901,9.7535928 96.68566,7.9282698 96.587199,7.8424677 96.4892,7.1565939 95.595243,6.7313887 95.920177,5.0872526 96.048147,4.3100231 95.94535,2.5083479 95.737945,2.1442019 95.529075,1.0939643 95.262603,1.1712356 Z"
       id="path4395"
       inkscape:connector-curvature="0"
       sodipodi:nodetypes="cccccccccccccccccccccccccccccccccccccccccccccccccccccccccccccccccccccccccccccccccccccccccccccccccccccc" />
    <path
       style="fill:url(#linearGradient6532);fill-opacity:1;fill-rule:evenodd;stroke:#ff00ff;stroke-width:0.29055119;stroke-linecap:butt;stroke-linejoin:miter;stroke-miterlimit:4;stroke-dasharray:none;stroke-opacity:1"
       d="m 57.341132,62.1616 -4.772972,11.4021 -3.181981,9.63433 c -2.296349,4.25377 -1.995434,6.28131 -2.828427,9.28077 l -0.265165,3.71231 3.093593,1.1e-5 c 1.031197,-0.116287 1.885617,-0.09813 4.154251,0.08839 -0.246005,-0.779879 -0.298959,-1.485795 -0.530329,-2.474874 l -0.53033,-1.944547 1.414213,-5.83364 0.441942,-2.91681 c 2.43366,-3.33509 4.577909,-7.53841 6.540739,-12.28598 z"
       id="path4399-1"
       inkscape:connector-curvature="0"
       sodipodi:nodetypes="ccccccccccccc" />
    <path
       style="display:inline;opacity:0.32000002;fill:url(#pattern6109-2);fill-opacity:1;fill-rule:evenodd;stroke:#ff00ff;stroke-width:0.29055119;stroke-linecap:butt;stroke-linejoin:miter;stroke-miterlimit:4;stroke-dasharray:none;stroke-opacity:1"
       d="m 57.341132,62.1616 -4.772972,11.4021 -3.181981,9.63433 c -2.296349,4.25377 -1.995434,6.28131 -2.828427,9.28077 l -0.265165,3.71231 3.093593,1.1e-5 c 1.031197,-0.116287 1.885617,-0.09813 4.154251,0.08839 -0.246005,-0.779879 -0.298959,-1.485795 -0.530329,-2.474874 l -0.53033,-1.944547 1.414213,-5.83364 0.441942,-2.91681 c 2.43366,-3.33509 4.577909,-7.53841 6.540739,-12.285981 z"
       id="path4399-1-8"
       inkscape:connector-curvature="0"
       sodipodi:nodetypes="ccccccccccccc" />
    <path
       style="fill:url(#linearGradient6500);fill-opacity:1;fill-rule:evenodd;stroke:#ff00ff;stroke-width:0.29055119;stroke-linecap:butt;stroke-linejoin:miter;stroke-miterlimit:4;stroke-dasharray:none;stroke-opacity:1"
       d="m 21.873786,54.95029 1.237437,6.45235 -3.005204,8.30851 3.005203,9.104 2.651651,9.19238 4.154252,6.0988 0.08839,1.325821 c 0.572492,0.61415 1.314215,0.382143 2.12132,-0.176773 l 3.889088,-1.502597 C 35.137786,92.5272 34.654402,91.4136 32.038446,88.97981 30.004378,84.45642 28.06872,80.00683 27.884193,76.8706 l 0.08839,-2.47487 c 1.329673,-1.26382 1.080357,-3.79084 1.325825,-5.92202 l 3.005204,-5.48008 1.502602,-4.68458 c -2.45666,-0.68633 -3.522262,-2.48549 -4.86136,-4.06587 l -2.65165,-4.06586 -1.325825,-0.44194 z"
       id="path4397-0"
       inkscape:connector-curvature="0"
       sodipodi:nodetypes="ccccccccccccccccccc" />
    <path
       style="display:inline;opacity:0.28699999;fill:url(#pattern6205-4);fill-opacity:1;fill-rule:evenodd;stroke:#ff00ff;stroke-width:0.29055119;stroke-linecap:butt;stroke-linejoin:miter;stroke-miterlimit:4;stroke-dasharray:none;stroke-opacity:1"
       d="m 21.873786,54.95029 1.237437,6.45235 -3.005204,8.30851 3.005203,9.104 2.651651,9.19238 4.154252,6.0988 0.08839,1.325821 c 0.572492,0.61415 1.314215,0.382143 2.12132,-0.176773 l 3.889088,-1.502597 C 35.137786,92.5272 34.654402,91.4136 32.038446,88.97981 30.004378,84.45642 28.06872,80.00683 27.884193,76.8706 l 0.08839,-2.47487 c 1.329673,-1.26382 1.080357,-3.79084 1.325825,-5.92202 l 3.005204,-5.48008 1.502602,-4.68458 c -2.45666,-0.68633 -3.522262,-2.48549 -4.86136,-4.06587 l -2.65165,-4.06586 -1.325825,-0.44194 z"
       id="path4397-0-8"
       inkscape:connector-curvature="0"
       sodipodi:nodetypes="ccccccccccccccccccc" />
    <path
       style="display:inline;fill:url(#radialGradient6582-7);fill-opacity:1;fill-rule:evenodd;stroke:#ff0000;stroke-width:0.29055119;stroke-linecap:butt;stroke-linejoin:miter;stroke-miterlimit:4;stroke-dasharray:none;stroke-opacity:1"
       d="m 46.75747,100.3759 -0.618719,-3.181989 2.563263,-0.883884 4.77297,10e-7 1.149049,4.949752 c -2.77027,1.0383 -5.324627,0.13311 -7.866563,-0.88388 z"
       id="path6566-6"
       inkscape:connector-curvature="0"
       sodipodi:nodetypes="cccccc" />
    <path
       style="color:#000000;font-style:normal;font-variant:normal;font-weight:normal;font-stretch:normal;font-size:medium;line-height:normal;font-family:sans-serif;text-indent:0;text-align:start;text-decoration:none;text-decoration-line:none;text-decoration-style:solid;text-decoration-color:#000000;letter-spacing:normal;word-spacing:normal;text-transform:none;direction:ltr;block-progression:tb;writing-mode:lr-tb;baseline-shift:baseline;text-anchor:start;white-space:normal;clip-rule:nonzero;display:inline;overflow:visible;visibility:visible;opacity:1;isolation:auto;mix-blend-mode:normal;color-interpolation:sRGB;color-interpolation-filters:linearRGB;solid-color:#000000;solid-opacity:1;fill:#130700;fill-opacity:1;fill-rule:evenodd;stroke:none;stroke-width:1.77165353;stroke-linecap:butt;stroke-linejoin:miter;stroke-miterlimit:4;stroke-dasharray:none;stroke-dashoffset:0;stroke-opacity:1;color-rendering:auto;image-rendering:auto;shape-rendering:auto;text-rendering:auto;enable-background:accumulate"
       d="m 58.267578,62.330078 c -0.717794,-0.04273 -2.154268,0.374231 -2.632812,0.177734 -1.46611,3.611671 -1.780813,5.46181 -2.890625,9.226563 -0.474551,1.609791 -1.756472,4.10599 -2.136719,5.773437 -0.585186,2.56614 -1.673815,4.904807 -2.603516,7.03711 -0.648449,1.487241 -1.261878,3.44261 -1.714844,5.101562 -1.213149,4.443068 0.158798,3.803607 -0.404296,5.353516 -0.87351,1.413262 -0.974409,3.844835 -0.353516,5.54492 0.990659,0.8336 2.020772,0.84187 3.197266,1.19336 1.731014,0.62623 4.493126,0.93713 6.251953,0.16016 1.478336,-1.03994 -0.341817,-3.015386 -0.460938,-4.396487 -0.407384,-1.546712 -0.73071,-3.672322 -1.15039,-5.212891 -0.22337,-1.39427 0.97927,-3.21983 1.34375,-5.878906 0.165685,-1.208758 0.04633,-1.833783 0.720703,-3.115234 0.500281,-0.950635 1.346366,-2.781365 1.65039,-3.181641 0.677141,-0.89152 1.874197,-2.517459 2.425782,-3.878906 0.583016,-1.439026 1.021,-2.987912 1.890625,-4.273437 0.315878,-0.418914 -0.632015,-0.890576 -0.867188,-1.332032 -1.047134,0.121189 -1.549734,2.156329 -1.986328,3.177735 -0.804327,1.881715 -1.802033,3.633491 -2.947266,5.361328 -1.667279,2.515458 -2.524336,5.422043 -2.767578,8.541015 -0.128506,1.647766 -0.742425,2.305336 -0.943359,3.886719 -0.133562,1.05116 0.181867,2.417809 0.320312,3.257813 0.06171,0.144868 0.16503,0.483109 0.285157,0.910156 -0.890477,-0.07811 -1.790599,-0.141629 -2.705079,-0.111328 -0.793738,0.0263 -1.594736,0.128328 -2.40039,0.332031 0.03139,-0.03777 0.0533,-0.07875 0.08789,-0.115234 0.498525,-1.602954 0.117246,-2.051808 0.171876,-3.765625 0.06618,-2.076228 0.803233,-5.500783 1.667968,-6.908204 0.96079,-1.563756 1.27288,-3.28975 1.81836,-5.037109 0.486446,-1.558254 1.418672,-2.847665 1.728515,-4.453125 0.284378,-1.473514 0.922225,-2.765419 1.478516,-4.195312 1.461876,-3.757616 2.142963,-5.942038 4.183594,-9.13086 -0.06836,-0.02808 -0.155271,-0.04272 -0.257813,-0.04883 z m -8.433594,34.386719 c 0.966657,-0.03118 1.950383,0.04607 2.949219,0.138672 0.251694,1.020816 0.540301,2.334201 0.792969,3.761721 -1.594929,0.26011 -4.826205,-0.15433 -6.228516,-0.892581 -0.325551,-0.78094 -0.565482,-1.66483 -0.482422,-2.46875 0.980517,-0.351281 1.96693,-0.506749 2.96875,-0.539062 z"
       id="path4173"
       inkscape:connector-curvature="0" />
    <path
       style="display:inline;fill:url(#radialGradient6582-1);fill-opacity:1;fill-rule:evenodd;stroke:#ff0000;stroke-width:0.29055119;stroke-linecap:butt;stroke-linejoin:miter;stroke-miterlimit:4;stroke-dasharray:none;stroke-opacity:1"
       d="m 30.759179,98.784901 c -0.951728,-0.854421 -1.197984,-1.708841 -0.972272,-2.563262 1.215973,-0.454931 2.31264,-0.841686 5.126524,-2.209709 l 1.944544,0.265165 c 0.630732,1.631037 2.437551,2.755557 2.032932,4.596195 -2.622188,0.917493 -5.50954,0.07812 -8.131728,-0.08839 z"
       id="path6566-0"
       inkscape:connector-curvature="0"
       sodipodi:nodetypes="cccccc" />
    <path
       style="color:#000000;font-style:normal;font-variant:normal;font-weight:normal;font-stretch:normal;font-size:medium;line-height:normal;font-family:sans-serif;text-indent:0;text-align:start;text-decoration:none;text-decoration-line:none;text-decoration-style:solid;text-decoration-color:#000000;letter-spacing:normal;word-spacing:normal;text-transform:none;direction:ltr;block-progression:tb;writing-mode:lr-tb;baseline-shift:baseline;text-anchor:start;white-space:normal;clip-rule:nonzero;display:inline;overflow:visible;visibility:visible;opacity:1;isolation:auto;mix-blend-mode:normal;color-interpolation:sRGB;color-interpolation-filters:linearRGB;solid-color:#000000;solid-opacity:1;fill:#130700;fill-opacity:1;fill-rule:evenodd;stroke:none;stroke-width:1.77165353;stroke-linecap:butt;stroke-linejoin:miter;stroke-miterlimit:4;stroke-dasharray:none;stroke-dashoffset:0;stroke-opacity:1;color-rendering:auto;image-rendering:auto;shape-rendering:auto;text-rendering:auto;enable-background:accumulate"
       d="m 23.082031,54.308594 -1.984375,1.601562 c 0.67135,2.713451 1.554036,4.443486 0.632813,7.179688 -0.699634,2.910921 -3.159364,5.492649 -2.046875,8.548828 0.947559,2.30732 1.786685,4.13433 2.591797,6.609375 1.021314,3.139683 1.631429,7.388465 2.697265,10.359375 1.113417,2.204284 2.621981,3.935867 4.310547,5.734375 -0.01854,0.733248 -0.392289,2.315182 0.318359,3.736328 0.916358,1.376097 2.911153,1.450292 4.542969,1.628906 2.02917,0.222107 3.281456,0.281013 5.220703,-0.328125 0.261334,-2.157555 -1.457222,-4.641748 -2.705078,-6.142578 -1.317265,-1.549177 -2.630487,-3.089529 -3.75,-4.787109 -0.168559,-1.878939 -2.005969,-3.506839 -2.347656,-5 -0.881866,-3.10077 -1.973677,-5.614214 -1.955078,-8.871094 1.278574,-1.371197 1.241388,-3.001256 0.998047,-4.681641 0.274071,-2.915083 3.255576,-4.806128 3.96875,-7.570312 0.331287,-1.27985 0.961602,-2.251526 1.121093,-3.419922 -0.516468,-0.02595 -2.203465,-1.50439 -2.464843,-1.019531 -0.707564,2.445286 -0.499295,5.391677 -2.03125,7.521484 -1.386034,1.926939 -1.887372,4.154014 -2.052735,6.482422 -0.687043,1.611927 -1.578692,3.211476 -1.179687,4.957031 0.451045,3.123995 1.346499,5.651807 2.822265,8.433594 0.689931,1.300504 1.099261,3.092328 1.845704,4.242188 1.037637,1.026992 2.14905,2.387077 3.230468,3.828124 -0.141331,0.03539 -0.279297,0.07925 -0.414062,0.13086 -0.526823,0.201756 -1.020667,0.503468 -1.509766,0.808594 -0.845757,0.527627 -1.671414,1.020341 -2.458984,1.164062 -0.08031,-0.462635 -0.06149,-0.990893 0.210937,-1.599609 -2.131729,-2.365988 -4.164224,-4.797215 -4.957031,-7.962891 -0.717522,-2.4242 -1.422284,-5.346593 -2.1875,-7.890625 -0.75856,-2.521905 -1.040597,-5.113003 -1.988281,-7.439453 -0.541017,-2.259137 1.09705,-3.928654 1.619141,-6.064453 0.848024,-2.493784 1.068039,-5.189457 0.435546,-7.759766 -0.155005,-0.814348 -0.331933,-1.625504 -0.533203,-2.429687 z M 35.375,94.333984 c 0.07765,-0.0081 0.147219,0.01263 0.220703,0.01758 0.663751,0.918828 1.312394,1.843493 1.902344,2.726563 0.145803,1.13828 -2.267743,0.640066 -3.117188,0.666016 -1.335723,0.0408 -2.249236,-0.02189 -3.242187,-0.41211 0.0015,-0.211271 -0.144913,-0.506265 -0.302734,-0.841797 1.008721,-0.21824 1.883028,-0.807187 2.667968,-1.296875 0.480677,-0.299871 0.929537,-0.566851 1.326172,-0.71875 0.198318,-0.07595 0.377228,-0.123179 0.544922,-0.140625 z"
       id="path4171"
       inkscape:connector-curvature="0" />
    <path
       style="fill:url(#pattern6297);fill-opacity:1;fill-rule:evenodd;stroke:#aa0000;stroke-width:0.29055119;stroke-linecap:butt;stroke-linejoin:miter;stroke-miterlimit:4;stroke-dasharray:none;stroke-opacity:1"
       d="m 89.490186,6.501856 2.05503,-2.762136 1.922446,-0.68501 1.39211,-1.701476 c 0.39204,-0.380721 0.67364,0.0669 0.95018,0.552428 0.15276,2.677303 0.0108,5.246025 -0.95018,7.513008 L 92.208126,7.341545 Z"
       id="path4487-3"
       inkscape:connector-curvature="0"
       sodipodi:nodetypes="cccccccc" />
    <path
       style="color:#000000;font-style:normal;font-variant:normal;font-weight:normal;font-stretch:normal;font-size:medium;line-height:normal;font-family:sans-serif;text-indent:0;text-align:start;text-decoration:none;text-decoration-line:none;text-decoration-style:solid;text-decoration-color:#000000;letter-spacing:normal;word-spacing:normal;text-transform:none;direction:ltr;block-progression:tb;writing-mode:lr-tb;baseline-shift:baseline;text-anchor:start;white-space:normal;clip-rule:nonzero;display:inline;overflow:visible;visibility:visible;opacity:1;isolation:auto;mix-blend-mode:normal;color-interpolation:sRGB;color-interpolation-filters:linearRGB;solid-color:#000000;solid-opacity:1;fill:#2b1000;fill-opacity:1;fill-rule:evenodd;stroke:none;stroke-width:1.0629921;stroke-linecap:butt;stroke-linejoin:miter;stroke-miterlimit:4;stroke-dasharray:none;stroke-dashoffset:0;stroke-opacity:1;color-rendering:auto;image-rendering:auto;shape-rendering:auto;text-rendering:auto;enable-background:accumulate"
       d="M 94.841797,0.72851562 C 94.135512,0.94752189 93.74068,1.855379 93.270801,2.3819777 92.951558,2.7397572 92.203318,2.741534 91.814851,3.000157 90.956607,3.5715349 90.139381,4.1692688 89.663062,5.0990602 89.511479,5.3718932 89.087178,5.8678336 88.858301,6.084249 l 1.579964,0.5849452 C 90.595016,6.0024855 90.995392,4.984686 91.638476,4.4014627 92.257072,3.840448 92.955129,3.8536042 93.643746,3.3963636 94.216134,3.0162987 94.486778,1.9901536 95.138672,1.75 c 0.307985,-0.1134596 0.27762,0.3941345 0.312453,0.7066003 0.176763,1.5856128 -0.05772,3.1948016 -0.375126,4.7534882 -0.121734,0.5977992 -0.133492,1.3322727 -0.398464,1.885386 l 0.547564,0.3940336 C 95.829196,8.2186401 96.298641,6.7574014 96.440328,5.3716568 96.562449,4.1772781 96.635081,2.9552952 96.416247,1.7650107 96.333519,1.3150364 96.166292,0.56913988 95.728775,0.41908413 95.487515,0.33633921 95.08755,0.65231201 94.841797,0.72851562 Z"
       id="path4381"
       inkscape:connector-curvature="0"
       sodipodi:nodetypes="ssscccsssssccssss" />
    <path
       style="opacity:0.30700001;fill:url(#pattern6015);fill-opacity:1;fill-rule:evenodd;stroke:#ffff00;stroke-width:0.29055119;stroke-linecap:butt;stroke-linejoin:miter;stroke-miterlimit:4;stroke-dasharray:none;stroke-opacity:1"
       d="m 99.14844,20.25049 c 0.32528,-1.5026 0.35566,-3.0052 -1.41422,-4.5078 L 96.14323,10.61616 C 95.5745,9.4081899 93.98529,8.2002099 92.25415,6.9922399 c -2.53595,-0.8314 -4.82974,-0.93634 -6.8943,-0.35355 l -5.3033,2.29809 -9.45755,8.5736701 -6.89429,5.12653 c -4.15775,3.33774 -8.92855,2.99726 -13.52342,3.71231 L 36.569487,23.16731 c -4.233017,-1.09072 -8.3128,-1.72173 -11.844038,-0.70711 -5.363256,1.93955 -8.008563,4.10559 -10.606602,6.27557 -2.355591,2.07102 -3.43644,4.32414 -4.1542521,6.62913 l 0.8838831,12.46276 -0.618718,9.98788 -3.3587571,8.83883 -2.032932,14.93764 -1.414214,4.5078 -0.1767764,8.308509 3.0935938,-1.149053 c 1.6879089,0.0085 2.937618,-0.06758 3.5355345,0.0884 L 8.7271589,88.4863 9.6110429,78.85197 14.384014,66.91954 20.306033,57.10843 c 1.69105,-1.73849 3.081557,-3.97789 4.065864,-6.89429 0.885382,-0.86491 1.555894,-0.22573 2.209709,0.53033 1.146222,2.96792 2.80228,5.22206 5.126524,6.54074 3.564997,1.88291 7.12999,4.31878 10.69499,5.12652 l 11.04854,0.97228 4.33103,-1.14905 c 0.13105,3.7782 1.78528,6.90362 3.53553,9.98788 l 0.17678,6.62913 2.56326,5.65685 1.94455,10.69499 1.76776,3.62392 0.08839,2.03293 c 1.237436,-0.42181 1.856155,-0.81034 3.447145,-0.7071 1.412399,-0.277176 2.846231,-0.586496 3.800703,-0.176777 -0.262746,-1.033621 -0.847368,-1.745367 -1.325832,-2.56327 L 73.16226,96.352863 C 70.16679,92.852873 71.23018,93.1934 69.98028,90.78439 69.57967,88.75498 68.60227,86.84093 69.27318,84.59721 l 0.7071,-5.3033 c -0.95011,-3.90206 -2.3027,-7.30102 -2.38648,-12.28598 0.54338,-2.37434 0.64104,-4.87603 2.74004,-6.8059 2.56556,-1.38187 3.87079,-4.33917 5.56846,-6.80591 1.19953,-2.6786 1.07796,-5.88564 1.14905,-9.01561 1.41421,-1.31935 2.82843,-3.08295 4.24264,-6.27557 0.97227,-1.97645 1.94454,-4.85989 2.91682,-5.92202 l 5.12652,3.18198 3.88909,3.88909 c 0.84449,1.97432 1.86674,3.4154 3.18198,3.97747 l 3.09359,-0.61872 c 1.45087,-0.0127 3.02579,0.26411 3.8007,-1.32582 2.24127,-1.86294 1.4426,-3.3881 1.76776,-5.03814 l -2.91681,-6.45235 c -1.38918,-3.13355 -3.38014,-6.19187 -3.0052,-9.54594 z"
       id="path4395-6"
       inkscape:connector-curvature="0"
       sodipodi:nodetypes="cccccccccccccccccccccccccccccccccccccccccccccccccccccccccc" />
    <path
       style="fill:url(#radialGradient6540);fill-opacity:1;fill-rule:evenodd;stroke:none;stroke-width:0.35433072;stroke-linecap:butt;stroke-linejoin:miter;stroke-miterlimit:4;stroke-dasharray:none;stroke-opacity:1"
       d="m 94.398756,16.364066 c -0.217354,0.375434 0.978005,2.562305 1.767766,3.889087 0.456302,0.766578 0.865098,2.821607 1.513372,4.508215 0.648274,1.686608 1.536026,3.004795 1.536026,3.004795 0.766584,1.886169 0.328527,2.567697 0.353554,3.71231 0.121979,0.792865 2.003276,2.737764 2.253906,3.447146 -0.063,-0.209282 -1.6834,-0.513261 -1.856158,-0.441942 -1.798569,0.742497 -1.503709,1.461133 -1.679379,2.386486 -0.832138,-1.006625 -1.680855,-1.839196 -2.740039,-1.37002 -1.781199,0.789817 -1.663475,4.198655 -1.370019,5.126524 1.664702,3.51082 3.694356,2.767219 5.568466,1.90035 3.018649,0.493208 4.262029,-0.873396 4.817169,-2.96101 0.9288,-2.175815 0.0831,-3.419045 0.0442,-4.949747 l -4.06586,-8.131729 -1.944548,-5.214912 c 0,0 -0.804928,-1.628579 -1.237437,-2.519068 -0.596437,-1.228001 -0.50085,-2.714239 -1.079507,-3.950717 -0.377553,-0.806761 -0.769998,-2.564786 -1.660532,-2.545826 -0.509152,0.01084 0.220798,3.346994 -0.22097,4.110058 z"
       id="path4386"
       inkscape:connector-curvature="0"
       sodipodi:nodetypes="ssscccsccccccccssss" />
    <path
       style="fill:url(#radialGradient6582);fill-opacity:1;fill-rule:evenodd;stroke:#ff0000;stroke-width:0.29055119;stroke-linecap:butt;stroke-linejoin:miter;stroke-miterlimit:4;stroke-dasharray:none;stroke-opacity:1"
       d="m 3.7123107,97.902317 -0.6187185,-3.181981 3.1819805,-1.502602 4.0658643,0.441942 0.53033,4.507806 z"
       id="path6566"
       inkscape:connector-curvature="0"
       sodipodi:nodetypes="cccccc" />
    <path
       style="display:inline;fill:url(#radialGradient6582-6);fill-opacity:1;fill-rule:evenodd;stroke:#ff0000;stroke-width:0.29055119;stroke-linecap:butt;stroke-linejoin:miter;stroke-miterlimit:4;stroke-dasharray:none;stroke-opacity:1"
       d="m 69.296498,104.44175 -1.414213,-3.27037 3.977475,-1.414209 3.447147,0.08839 2.386485,4.949749 c -2.526502,1.38069 -5.401637,0.8439 -8.396894,-0.35356 z"
       id="path6566-4"
       inkscape:connector-curvature="0"
       sodipodi:nodetypes="cccccc" />
    <path
       style="color:#000000;font-style:normal;font-variant:normal;font-weight:normal;font-stretch:normal;font-size:medium;line-height:normal;font-family:sans-serif;text-indent:0;text-align:start;text-decoration:none;text-decoration-line:none;text-decoration-style:solid;text-decoration-color:#000000;letter-spacing:normal;word-spacing:normal;text-transform:none;direction:ltr;block-progression:tb;writing-mode:lr-tb;baseline-shift:baseline;text-anchor:start;white-space:normal;clip-rule:nonzero;display:inline;overflow:visible;visibility:visible;opacity:1;isolation:auto;mix-blend-mode:normal;color-interpolation:sRGB;color-interpolation-filters:linearRGB;solid-color:#000000;solid-opacity:1;fill:#2b1000;fill-opacity:1;fill-rule:evenodd;stroke:none;stroke-width:1.77165353;stroke-linecap:butt;stroke-linejoin:miter;stroke-miterlimit:4;stroke-dasharray:none;stroke-dashoffset:0;stroke-opacity:1;color-rendering:auto;image-rendering:auto;shape-rendering:auto;text-rendering:auto;enable-background:accumulate"
       d="m 88.367188,5.59375 c -5.749961,-0.1049346 -10.543669,3.9664075 -14.46875,7.691406 -3.421622,3.247204 -6.870984,6.910554 -10.958985,9.351563 -2.507845,1.497474 -5.256648,2.535702 -8.386719,2.734375 -6.679616,0.42397 -12.771834,-1.992261 -19.146484,-3.25 C 29.834078,21.021687 23.880243,21.033298 18.982422,24.285156 14.973698,26.946707 10.047831,30.148863 9.5195312,35.300781 8.9619416,40.738328 10.236106,46.22421 9.9355469,51.726562 9.7653307,54.842726 9.6574329,57.890338 8.3125,60.779297 5.1650934,67.540026 5.3632013,73.261203 4.4902344,80.583984 c -0.2820773,2.366172 -1.6486338,4.566516 -1.71875,5.824219 -0.091266,1.637072 0.3524637,3.847996 0.3007812,5.416016 -0.041234,1.251004 -0.6049815,1.335491 -1.0546875,2.548828 0.4590005,2.078901 0.6482125,2.980396 1.2109375,4.208984 1.264022,0.446618 2.8770453,0.354599 4.3828125,0.365235 2.036192,0.01438 4.2713269,0.18862 4.3398439,-0.527344 0.123244,-1.287816 -0.786835,-4.525414 -1.351563,-6.748047 -0.9900578,-3.896641 -1.0845046,-7.314741 -0.265625,-11.269531 0.490491,-2.368822 1.623595,-5.372051 3.039063,-7.458985 1.034921,-1.525863 0.995719,-3.461424 1.650391,-5.115234 0.481809,-1.217141 1.553592,-2.831546 2.298828,-4.007813 2.554351,-4.031739 4.75939,-6.440743 6.609375,-10.818359 0.651839,-1.542446 1.043653,-2.743738 1.519531,-2.716797 0.785244,0.04445 1.204213,2.467745 2.378906,3.984375 2.54317,3.283453 6.700846,5.95556 10.732422,7.5 5.422778,2.07739 10.585834,3.017347 15.892578,2.142578 2.693583,-0.444012 3.147269,1.632698 3.669922,3.369141 0.742812,2.467893 1.711747,3.673124 2.806641,5.433594 -0.105137,2.435612 -0.25723,4.959578 0.142578,6.552734 0.411125,1.638253 1.720049,2.423431 2.40625,4.742188 0.532612,1.799764 0.59124,4.431563 1.15625,7.328125 0.580786,2.977436 1.575076,5.71905 2.365234,7.476562 0.470937,1.047483 0.362044,1.601597 0.513672,3.078127 0.573626,2.52316 1.0405,3.77269 3.791016,4.0039 2.909046,0.24453 6.516365,-0.007 7.5625,-0.3789 0.0112,-1.33941 -1.650588,-2.97067 -2.486329,-4.33399 -0.772199,-1.259641 -0.689456,-2.267252 -1.505859,-3.523434 -1.070709,-1.647477 -2.751849,-4.044307 -3.300781,-5.478515 -1.442644,-3.769229 -2.09635,-4.035901 -1.369141,-7.96875 0.251097,-1.357969 0.878057,-2.636723 0.703125,-4.960938 -0.08879,-1.179741 -0.721276,-2.291714 -1.046875,-3.677734 -0.568332,-2.419298 -1.024169,-5.219137 -1.189453,-6.671875 -0.183759,-1.615124 0.0189,-2.482785 0.419922,-4.898438 0.941701,-1.725439 1.928331,-2.530288 3.273438,-3.916015 2.143636,-2.208373 3.210526,-3.201803 4.515624,-6.035157 1.787864,-3.881426 0.481212,-7.057289 1.28125,-8.759765 1.229779,-2.616948 3.106246,-5.095412 4.222657,-7.865235 0.52652,-1.751409 0.994416,-3.158893 1.697265,-3.802734 0.775123,-0.710048 1.04985,0.95742 3.316407,1.851562 1.260291,0.497181 1.893296,0.503868 2.677734,1.201172 0.89765,0.797941 2.614447,2.169546 3.136719,3.855469 0.313223,1.011105 1.003595,2.468248 2.15625,3.021485 1.605473,0.770575 3.563834,1.17138 4.576172,-0.378907 2.823564,0.755335 3.827704,-0.388722 5.138674,-3.070312 1.4499,-2.965799 0.7944,-4.507602 -0.14453,-6.673828 -1.22502,-2.826286 -3.14902,-5.651657 -3.89063,-8.070313 -0.50005,-1.630861 -1.465815,-4.147082 -1.197264,-4.65625 C 100.94668,18.632465 99.746326,16.316609 98,14.529297 97.91044,10.321399 93.616664,5.689551 88.367188,5.59375 Z m 0.613281,1.3125 c 5.589951,0.1507515 6.770403,4.899144 7.970703,8.689453 0.904133,1.450304 2.512858,2.765025 1.373047,5.244141 -0.220635,0.479887 0.275476,2.980433 1.166015,5.296875 0.515846,1.341793 1.289096,2.524427 1.882816,3.412109 1.88345,2.815957 3.33042,7.222118 2.19726,9.867188 -0.53965,1.259672 -1.78567,3.114081 -3.874998,2.300781 -1.411681,0.549537 -3.124165,0.204742 -3.958984,-0.322266 -0.918262,-0.579685 -0.920618,-1.418404 -1.679687,-2.449219 -1.581381,-2.147517 -3.30956,-4.391681 -4.832032,-4.730468 -2.063686,-0.45922 -2.941103,-1.567129 -3.320312,-1.908203 -0.949126,-0.853678 -1.377511,-0.981839 -1.974609,-1.6875 -0.61804,-0.730408 -0.889341,-1.218179 -1.212891,-1.976563 -0.41589,-0.974824 0.159337,-2.482192 0.740234,-3.277344 0.509186,-0.696991 0.0788,-0.742775 -0.277343,-0.496093 -0.206391,0.142957 -1.582903,1.682817 -1.296876,3.908203 0.110671,0.86105 0.522969,1.796106 1.076172,2.601562 0.162131,0.236061 0.33159,0.42719 0.503907,0.638672 -0.738095,1.176611 -1.065432,3.963589 -2.421875,5.97461 -1.63477,2.423653 -3.150213,4.375507 -4.34961,5.93164 -0.462642,2.862026 -0.380932,5.571299 -1.382812,8.240234 -0.839627,2.236706 -1.923969,4.227958 -4.123047,5.791016 -0.854737,0.607529 -1.923879,2.068183 -2.818359,3.521484 -0.132633,-1.24804 -0.488943,-2.122166 -0.841797,-3.380859 -0.537373,-1.916898 -0.857345,-3.239931 -3.21875,-4.652344 -1.01982,-0.609978 -1.660868,-0.361708 -0.310547,0.712891 1.962876,1.562075 2.017894,2.485909 2.505859,4.226562 0.46036,1.642182 0.527051,3.443497 0.787109,5.261719 -0.127902,2.549382 -0.18255,5.809094 0.558594,9.089844 0.762851,3.37684 1.896202,6.748642 0.769532,10.294922 -0.850843,4.725037 0.389474,7.851879 2.539062,12.041015 1.021514,1.014078 1.785696,2.585004 2.960938,3.503907 0.260968,0.204047 0.428536,0.443949 0.542968,0.708984 -0.676969,0.02844 -1.850148,0.04493 -3.138672,0.193359 -1.022334,0.117774 -2.068882,0.295371 -2.914062,0.701168 0.03727,-0.55137 0.132061,-1.146531 -0.05664,-1.728511 -0.552723,-1.704674 -1.920588,-3.533387 -2.099609,-5.626953 -0.248652,-2.907853 -1.473378,-8.108858 -2.128906,-10.048828 -0.80772,-1.797529 -1.792509,-3.126087 -1.990235,-4.498047 -0.283074,-1.964151 0.389871,-3.921628 -0.07422,-6.666016 -1.357643,-1.833133 -1.967033,-4.317669 -2.55664,-6.421875 -0.189707,-0.677031 -0.476597,-1.352293 -0.63086,-2 -0.314632,-1.321098 -0.426081,-2.7046 -0.996093,-3.947266 -0.36744,-0.801046 -1.097753,-1.333432 -1.882813,-1.691406 -0.447377,-0.203996 -0.809664,-0.532339 -1.21289,-0.902344 -0.772054,-0.708445 -0.778104,-1.28415 -0.517578,-2.328125 0.242823,-0.973058 0.660083,-1.775175 0.902343,-2.748047 0.665466,-2.672384 0.257584,-2.794993 -0.99414,-0.27539 -0.718161,1.445589 -1.364853,2.344261 -1.414063,3.375 -0.05135,1.07552 0.101034,2.550623 0.816406,3.417969 0.646601,0.78397 1.807826,0.862798 2.486328,1.580078 0.494437,0.522691 0.299057,0.956681 0.476563,1.648437 -1.736018,0.436512 -4.20264,0.589557 -5.177734,0.660156 -5.126527,0.371173 -8.470809,-0.365534 -16.097657,-3.595703 -7.23614,-3.064697 -7.551334,-8.937546 -10.070312,-9.185547 0.631797,-1.304554 1.100891,-4.01232 1.259766,-5.236328 0.235533,-1.814618 0.526144,-2.634905 1.033203,-3.40039 0.367858,-0.555341 0.828217,-1.333434 1.564453,-2.236328 2.037006,-2.498112 1.098817,-2.102807 -0.232422,-0.519532 -0.910969,1.083439 -2.985796,2.303791 -3.205078,6.103516 -0.180783,3.132624 -1.761008,5.045113 -2.695313,7.433594 -1.63675,4.18423 -4.468796,6.710014 -6.855469,10.439453 -1.062255,1.659891 -2.059842,3.28395 -2.898437,4.986328 -0.725787,1.473373 -1.266266,3.023058 -1.759766,4.669922 -0.661758,2.208364 -2.2643462,4.109986 -2.4687496,6.570312 -0.3169172,3.81461 -1.371276,7.522963 -0.9140625,11.382813 0.1102991,0.931157 0.4246415,2.245302 0.7851562,3.496094 C 8.2243858,92.741629 7.4126299,92.673711 6.5898438,92.779297 5.8416527,92.87531 5.0938779,93.137101 4.3808594,93.5625 c 0.106006,-0.735783 0.131148,-1.475165 0.125,-2.226562 -0.012603,-1.54037 -0.4701461,-3.005698 -0.3046875,-4.730469 0.1760068,-1.834729 1.499123,-4.205772 1.7890625,-5.835938 0.5815737,-3.26986 0.4460111,-6.798252 0.984375,-10.09375 0.6397798,-3.916298 2.0463786,-7.570191 3.7773436,-11.183593 1.503757,-3.139106 0.66185,-6.835101 1.009766,-10.199219 0.526878,-5.094553 -1.729476,-10.401325 -0.08203,-15.269531 1.527732,-4.514486 6.10792,-7.067388 10.177734,-9.253907 6.421342,-3.449884 13.90551,-1.091744 20.345703,0.748047 7.168622,2.047884 14.765791,2.232623 21.269531,-1.628906 3.762471,-2.233929 7.550046,-5.838373 11.150391,-9.322266 C 78.761367,10.561941 83.407288,7.2829696 87.802735,6.9375 88.215923,6.905025 88.607807,6.8962 88.98047,6.90625 Z M 7.5195312,93.789062 c 0.6128544,0.0073 1.2325919,0.108662 1.8378907,0.253907 0.098124,0.299966 0.1969215,0.610762 0.2929687,0.873047 0.4608104,1.258372 0.8956354,2.60368 -0.2890625,2.759765 -0.851698,0.112209 -3.6785471,-0.259946 -4.796875,-0.457031 -0.00187,-1.179221 -0.2529753,-1.587035 -0.3183593,-2.255859 0.7789608,-0.678407 1.6084019,-1.017248 2.4785156,-1.128907 0.2622103,-0.03365 0.5276161,-0.04811 0.7949218,-0.04492 z m 67.3828128,6.548828 c 0.06796,0.56206 0.106497,1.15654 0.339844,1.72266 0.313004,0.75937 1.033816,1.20019 1.273437,2.04492 -1.672388,0.5657 -4.99895,0.29134 -6.193359,-0.2207 -0.645562,-0.27675 -1.184174,-1.26409 -1.480469,-2.47852 -0.02297,-0.0309 -0.03346,-0.0657 -0.05273,-0.0977 0.645356,-0.36891 1.736685,-0.64673 2.853516,-0.77539 1.302618,-0.15006 2.539118,-0.15552 3.259766,-0.19531 z"
       id="path4169"
       inkscape:connector-curvature="0" />
    <path
       style="fill:#f5bd59;fill-opacity:1;fill-rule:evenodd;stroke:none;stroke-width:0.35433072;stroke-linecap:butt;stroke-linejoin:miter;stroke-miterlimit:4;stroke-dasharray:none;stroke-opacity:1"
       d="m 84.33478,6.5200499 c -1.555276,-0.63973 -2.869422,-1.45482 -6.187501,-0.8125 l -8.0625,3.6875 2.0625,1.7500001 c 0.628708,0.53099 -1.416209,1.69106 -3.5625,2.875 l -3.1875,3.625 1.9375,1.4375 -5.625,1.6875 -0.25,2.3125 -4.9375,0.3125 -4.25,3.6875 -5.3125,4 c -1.939134,1.75 -2.360139,3.5 -2.3125,5.25 1.730238,-2.62978 3.509985,-4.51691 5.40625,-4.65625 -2.097389,2.3052 -3.114275,4.3703 -3.71875,6.34375 l 2.375,1.625 c 0.945406,-1.64672 1.834153,-2.67019 2.613287,-2.48791 -0.649593,1.47513 -1.117308,2.95027 -0.613287,4.42541 0.749521,0.4248 1.46658,1.40148 2.375,-0.875 0.605384,1.39093 0.654656,3.11554 2,4.0625 0.96012,0.15357 1.643605,0.72209 1.9375,1.875 0.791667,0.78724 1.583333,1.63317 2.375,1.125 0.90405,0.69542 1.739095,1.14933 2.3125,0.6875 0.516587,-0.97112 1.111916,-2.8084 1.795159,-5.61272 0.609885,1.80847 0.603401,4.2333 2.267341,4.98772 l 2.4375,-0.3125 c -0.253904,0.55858 1.945358,3.15771 2.5,1.625 0.106336,-0.29386 1.5,-4.5625 1.5,-4.5625 0.625968,-0.91522 0.76156,-2.566 2.625,-1.625 0.431429,-2.23262 0.856813,-4.48942 1.125,-7.375 l 0.4375,-8.6875 c 0.278906,-0.76468 0.435358,-3.20289 1.1875,2.5 0.71411,2.66712 0.597321,4.66952 0.5,6.6875 1.271496,-0.94364 1.601188,-3.03837 1.375,-5.8125 l -0.3125,-5.875 c 0.134406,-1.70722 0.142857,-3.70834 0.75,-4.3125 l 1.4375,7.8125 -0.1875,-10.25 c 0.08667,-1.91448 0.892691,-3.91888 2.3125,-6 z"
       id="path4389-1"
       inkscape:connector-curvature="0"
       sodipodi:nodetypes="ccccccccccccccccccccccccccsccccccccccccc" />
    <path
       style="color:#000000;font-style:normal;font-variant:normal;font-weight:normal;font-stretch:normal;font-size:medium;line-height:normal;font-family:sans-serif;text-indent:0;text-align:start;text-decoration:none;text-decoration-line:none;text-decoration-style:solid;text-decoration-color:#000000;letter-spacing:normal;word-spacing:normal;text-transform:none;direction:ltr;block-progression:tb;writing-mode:lr-tb;baseline-shift:baseline;text-anchor:start;white-space:normal;clip-rule:nonzero;display:inline;overflow:visible;visibility:visible;opacity:1;isolation:auto;mix-blend-mode:normal;color-interpolation:sRGB;color-interpolation-filters:linearRGB;solid-color:#000000;solid-opacity:1;fill:#000000;fill-opacity:1;fill-rule:evenodd;stroke:none;stroke-width:1.0629921;stroke-linecap:butt;stroke-linejoin:miter;stroke-miterlimit:4;stroke-dasharray:none;stroke-dashoffset:0;stroke-opacity:1;color-rendering:auto;image-rendering:auto;shape-rendering:auto;text-rendering:auto;enable-background:accumulate"
       d="m 95.681641,36.992188 c -0.01384,-0.728023 -0.846981,-0.423946 -0.949219,0.474609 -0.05,0.439442 0.574349,2.341754 1.715428,2.929687 0.875098,0.450888 1.341212,2.486328 1.341212,2.486328 l 0.896485,-0.572265 c 0,0 -0.379698,-2.080858 -1.24878,-2.502588 -0.984994,-0.477976 -1.745926,-2.331661 -1.755126,-2.815771 z"
       id="path4219"
       inkscape:connector-curvature="0"
       sodipodi:nodetypes="sssccss" />
    <path
       style="fill:#f5bd59;fill-opacity:1;fill-rule:evenodd;stroke:none;stroke-width:0.35433072;stroke-linecap:butt;stroke-linejoin:miter;stroke-miterlimit:4;stroke-dasharray:none;stroke-opacity:1"
       d="m 90.029318,12.28403 c 0.266983,1.02004 0.42201,2.31997 1,2.5625 l 2.125002,3 0.5,3.8125 c 0.2548,-2.26764 -0.20363,-5.01076 0.9375,-6.6875 1.06744,1.02206 1.23149,1.81828 1.6875,2.6875 -0.13899,-1.80915 -0.3306,-3.68409 -1.125,-6.3125 0.66822,0.27473 1.49637,1.29302 2.8125,3.1875 l 0.375,-2.1875 c 0.20346,-1.66258 -1.05126,-3.4871801 -2.3125,-5.3125001 -1.25,-1.08929 -2.5,-0.98119 -3.75,-1.125 l -4.250002,0.375 c 0.729433,1.95815 2.602861,3.15364 2,6.0000001 z"
       id="path4391-6"
       inkscape:connector-curvature="0"
       sodipodi:nodetypes="ccccccccccccc" />
    <path
       style="fill:#ffffff;fill-rule:evenodd;stroke:#ff6600;stroke-width:0.29055119;stroke-linecap:butt;stroke-linejoin:miter;stroke-miterlimit:4;stroke-dasharray:none;stroke-opacity:1"
       d="m 87.452688,19.549187 c 0.716271,-0.452091 1.403249,-1.168828 2.615038,-1.37316 0.903173,0.600258 2.155439,0.914894 2.209709,2.209709 -0.890657,1.097915 -1.561398,0.986288 -2.298097,1.237436 -1.60017,-0.19859 -1.870747,-1.088506 -2.52665,-2.073985 z"
       id="path6393"
       inkscape:connector-curvature="0"
       sodipodi:nodetypes="ccccc" />
    <ellipse
       style="color:#000000;display:inline;overflow:visible;visibility:visible;opacity:1;fill:url(#radialGradient6562);fill-opacity:1;fill-rule:nonzero;stroke:none;stroke-width:0.29055119;stroke-linecap:round;stroke-linejoin:miter;stroke-miterlimit:4;stroke-dasharray:none;stroke-dashoffset:0;stroke-opacity:1;marker:none;enable-background:accumulate"
       id="path6546"
       cx="89.90625"
       cy="19.924212"
       rx="1.21875"
       ry="1.28125" />
    <path
       style="color:#000000;font-style:normal;font-variant:normal;font-weight:normal;font-stretch:normal;font-size:medium;line-height:normal;font-family:sans-serif;text-indent:0;text-align:start;text-decoration:none;text-decoration-line:none;text-decoration-style:solid;text-decoration-color:#000000;letter-spacing:normal;word-spacing:normal;text-transform:none;direction:ltr;block-progression:tb;writing-mode:lr-tb;baseline-shift:baseline;text-anchor:start;white-space:normal;clip-rule:nonzero;display:inline;overflow:visible;visibility:visible;opacity:1;isolation:auto;mix-blend-mode:normal;color-interpolation:sRGB;color-interpolation-filters:linearRGB;solid-color:#000000;solid-opacity:1;fill:#411b00;fill-opacity:1;fill-rule:evenodd;stroke:none;stroke-width:1.0629921;stroke-linecap:butt;stroke-linejoin:miter;stroke-miterlimit:4;stroke-dasharray:none;stroke-dashoffset:0;stroke-opacity:1;color-rendering:auto;image-rendering:auto;shape-rendering:auto;text-rendering:auto;enable-background:accumulate"
       d="m 87.996272,18.33748 c -0.272865,0.140833 -0.931777,0.577082 -1.194095,0.870109 0.263268,0.628833 0.602416,1.286292 0.955258,1.749063 0.292934,0.384198 0.944888,0.854269 1.425486,0.970732 0.690673,0.167371 1.444395,0.08501 2.106015,-0.195039 0.49216,-0.20832 1.285519,-0.841269 1.587853,-1.409961 -0.208204,-0.676159 -0.682245,-1.456884 -1.143106,-1.848166 -0.453695,-0.385197 -1.338496,-0.685453 -2.019962,-0.61949 -0.693707,0.06715 -1.213714,0.222762 -1.717449,0.482752 z m 3.628651,1.62816 c 0.100945,0.358298 -0.293458,0.625574 -0.627838,0.791327 -0.537499,0.26644 -0.855686,0.295118 -1.340277,0.250036 -0.612997,-0.05703 -1.468494,-0.938502 -1.564976,-1.352131 0.270972,-0.436283 1.160662,-0.900595 2.152041,-0.839767 0.434234,0.02664 1.270014,0.75642 1.38105,1.150535 z"
       id="path4230"
       inkscape:connector-curvature="0"
       sodipodi:nodetypes="scssscsssssscss" />
    <path
       style="color:#000000;font-style:normal;font-variant:normal;font-weight:normal;font-stretch:normal;font-size:medium;line-height:normal;font-family:sans-serif;text-indent:0;text-align:start;text-decoration:none;text-decoration-line:none;text-decoration-style:solid;text-decoration-color:#000000;letter-spacing:normal;word-spacing:normal;text-transform:none;direction:ltr;block-progression:tb;writing-mode:lr-tb;baseline-shift:baseline;text-anchor:start;white-space:normal;clip-rule:nonzero;display:inline;overflow:visible;visibility:visible;opacity:1;isolation:auto;mix-blend-mode:normal;color-interpolation:sRGB;color-interpolation-filters:linearRGB;solid-color:#000000;solid-opacity:1;fill:#7a540f;fill-opacity:1;fill-rule:evenodd;stroke:none;stroke-width:1.77165353;stroke-linecap:butt;stroke-linejoin:miter;stroke-miterlimit:4;stroke-dasharray:none;stroke-dashoffset:0;stroke-opacity:1;color-rendering:auto;image-rendering:auto;shape-rendering:auto;text-rendering:auto;enable-background:accumulate"
       d="m 79.564453,5.1933594 c -0.230472,0.00234 -0.44347,0.018494 -0.630859,0.050781 -3.957995,0.6819554 -6.624531,1.7543885 -9.708985,4.2460938 0.346067,0.5841488 2.635718,1.7169178 2.429688,2.0878908 -0.497392,0.895592 -3.075653,1.598963 -3.806641,2.457031 -1.556954,1.226483 -2.88116,2.638149 -3.90625,4.31836 0.520966,0.197574 2.088088,0.46941 1.919922,0.644531 -0.477865,0.497628 -4.163817,0.673807 -4.626953,1.480469 -0.695365,1.211143 -0.230247,1.540905 -0.488281,2.292968 -3.804548,-0.782043 -6.86719,1.182227 -8.392578,3.544922 -1.410451,2.184666 -4.176276,3.183963 -6.00586,4.90625 -1.563445,1.471756 -2.757202,4.513334 -1.771484,5.990235 0.344439,0.516072 0.332582,-2.141822 1.099609,-3.492188 1.362448,-2.398616 4.337005,-3.656417 6.13086,-5.222656 2.108845,-1.414357 3.191786,-4.047438 6.015625,-4.505859 1.857437,-0.301536 3.078509,-0.06368 4.941406,-0.314454 -1.335208,-1.442882 0.413306,-2.739325 1.919922,-3.171875 1.53441,-0.623013 2.748379,-0.38689 4.322265,-0.896484 l -2.203125,-1.728516 c 1.230505,-3.006941 3.579124,-4.009408 5.814454,-5.498047 1.226202,-1.784523 -0.02176,-1.911949 -1.242188,-2.265624 0.815404,-1.2084536 3.480485,-2.0372241 4.373047,-2.5527351 2.493168,-1.4399627 4.721046,-1.5324162 7.748047,-0.7460937 0.06652,2.3282187 0.106704,3.6914628 -1.074219,5.5097658 -2.494586,3.790974 -1.940291,8.443758 -1.697266,12.802734 0.267227,3.619772 1.036885,4.618268 0.992188,1.900391 0.126073,-4.621328 -1.062034,-9.742444 1.677734,-13.84375 0.811867,-1.231714 0.749633,-2.79141 1.177735,-4.1816408 L 84.933594,6.5292969 C 83.690322,5.8467622 81.177756,5.1770016 79.564453,5.1933594 Z M 92.9375,5.5097656 c -0.751435,0.02864 -1.945144,0.148999 -2.259766,0.1699219 -0.31141,1.1278146 3.412371,0.6048409 4.75,1.8066406 1.917619,1.722896 1.817736,4.1935099 3.265625,6.2011719 0.241685,-0.874496 0.11242,-3.444207 -0.703125,-4.8046875 -1.0207,-1.7027162 -1.898191,-2.916344 -4.498046,-3.3632813 -0.103524,-0.017797 -0.30421,-0.019312 -0.554688,-0.00977 z m -0.658203,2.0078125 c -0.182966,0.6496352 2.811546,2.4121557 2.380859,4.4316409 1.974141,0.693444 2.054947,2.150044 3.326172,3.214843 1.405344,0.52135 -0.632089,-3.010469 -2.289062,-4.21289 C 95.389341,9.2390626 93.429417,8.0867551 92.279297,7.5175781 Z m -12.496094,0.00195 c -0.06597,0.00907 -0.167391,0.04075 -0.308594,0.099609 -2.909371,1.21276 -6.330541,3.2988049 -6.853515,6.8515619 0.01908,1.838907 -1.212041,3.930709 -1.570313,6.255859 -0.546791,3.548623 -1.723141,7.169371 -0.916015,10.759767 0.611274,2.719172 -0.158535,5.32669 -0.988282,7.888672 -0.855876,2.642657 -0.759605,5.455531 -1.101562,8.1875 0.590518,0.282769 0.576518,-3.018527 0.845703,-4.519532 0.510941,-2.84906 2.068445,-5.271489 2.552734,-8.058593 0.178179,-3.042897 -0.828765,-6.001388 -0.224609,-9.070313 0.705328,-3.582848 1.309112,-7.199172 2.257812,-10.714843 -0.298649,-2.99746 2.405211,-5.09938 4.69336,-6.2753914 0.842445,-0.4329817 2.075077,-1.4677946 1.613281,-1.4042969 z m 2.208985,0.546875 c -0.138191,-0.031253 -0.393553,0.2150665 -0.638672,0.765625 -1.884443,4.2325619 -2.62651,7.4864699 -3.589844,11.9921879 -0.816546,4.8184 2.429937,9.461469 0.857422,14.240234 -0.843882,1.800967 -0.314487,1.702776 0.705078,-0.134765 1.546401,-5.060994 -1.675785,-10.003762 -0.322266,-15.082032 0.993086,-3.946097 1.412987,-6.996967 2.927735,-10.876953 0.220064,-0.5636878 0.198737,-0.8730435 0.06055,-0.9042969 z m 9.773437,1.8007813 c -1.133384,0.5866206 2.415413,2.7499586 2.070313,4.5664066 -0.0011,0.204793 -0.664016,2.881218 0.115234,3.470703 0.439095,0.332166 -0.19809,-1.415084 0.464844,-2.226563 0.567408,0.710839 1.421145,1.493707 1.949218,2.496094 0.787356,-0.163819 -0.205795,-1.363972 -1.300781,-3.109375 -0.434497,-0.692586 -0.0465,-1.856894 -0.583984,-2.726562 C 93.793504,11.22635 92.588294,11.40792 91.765625,9.8671875 Z M 79.496094,10.191406 c -0.118207,0.03597 -0.377037,0.343937 -0.810547,1.041016 -2.224841,3.577516 -2.737539,7.283556 -3.226563,11.433594 0.06806,3.671058 0.166279,7.343302 0.310547,11.007812 -0.08649,3.060388 -0.493264,6.14419 -1.207031,9.074219 0.302882,0.251798 0.862718,-0.951249 1.240234,-4.001953 0.405144,-3.273964 1.082854,-6.495255 0.859375,-9.763672 -0.0055,-2.335712 -0.195817,-4.684623 -0.08594,-7.011719 0.626971,-3.734337 0.805714,-6.798737 2.478516,-10.234375 0.442704,-0.909237 0.638417,-1.604871 0.441406,-1.544922 z M 77.625,11.027344 c -0.14993,-0.04118 -0.521945,0.266201 -0.974609,0.960937 -2.571016,3.945914 -2.943604,8.01992 -4.052735,12.464844 -0.788995,4.918929 -0.152333,9.333184 -0.15039,14.277344 5.99e-4,1.523717 -0.874658,5.62479 -0.119141,5.492187 0.588836,-3.131021 1.199584,-6.289474 0.894531,-9.492187 -0.23352,-4.397752 -0.08852,-8.871416 1.085938,-13.158203 0.712503,-3.317941 1.126193,-6.474193 2.958984,-9.416016 C 77.7033,11.456871 77.77493,11.068527 77.625,11.027344 Z m 12.248047,0.765625 c -0.760485,3.320037 1.329817,3.080953 2.375,5.679687 1.155119,1.110514 0.191417,3.054067 1.478515,4.978516 -0.0059,-1.594281 0.287082,-3.463925 -0.224609,-4.953125 -0.483649,-1.407586 -1.29669,-2.273785 -2.441406,-3.222656 -0.640423,-1.119391 -0.668712,-2.439126 -1.1875,-2.482422 z m -18.125,2.474609 c -0.07875,-0.01257 -0.239226,0.02898 -0.490235,0.138672 -2.076812,0.907544 -4.120654,2.828682 -1.259765,5.359375 -0.740296,2.580172 -1.891902,4.668714 -2.099609,7.162109 -0.651175,3.074089 -1.792476,5.916759 -1.449219,9.09961 0.01511,3.38958 0.43078,6.860835 -0.69336,10.117187 -0.76316,2.210682 -0.37538,2.392654 0.382813,0.441407 0.982488,-2.528481 1.597754,-5.18178 1.396484,-7.886719 0.02112,-2.89055 -0.31128,-5.823872 0.546875,-8.634766 0.819008,-3.424273 1.387689,-6.950615 2.703125,-10.228515 -1.031067,-1.444815 -2.405785,-2.808801 -0.294922,-4.296876 0.994727,-0.701241 1.494068,-1.233762 1.257813,-1.271484 z m -3.333985,6.501953 c -0.124173,-0.008 -0.359409,0.294279 -0.582031,0.902344 -1.901084,5.192556 -3.726776,9.300323 -3.599609,14.904297 -0.252113,4.046431 -1.575981,7.906938 -2.429688,11.84375 0.544434,0.04118 1.127825,-2.968263 1.675782,-4.326172 1.442961,-3.575844 1.879461,-7.380717 2.009765,-11.214844 0.44824,-4.192367 1.491642,-7.180397 2.845703,-11.142578 0.218531,-0.639452 0.204252,-0.958766 0.08008,-0.966797 z m -1.40039,0.212891 c -0.134218,0.04797 -0.427501,0.425005 -0.933594,1.353516 -2.821159,5.175875 -5.897175,10.382542 -5.986328,16.314453 -0.04851,3.227631 0.01733,4.450976 -0.609375,7.544921 -0.315194,1.556056 0.285196,1.399093 0.599609,0.07227 0.666647,-2.813258 0.931001,-4.979273 1.09375,-7.970703 0.305443,-5.614239 2.727277,-10.943638 5.44336,-15.839844 0.399436,-0.720052 0.616275,-1.554565 0.392578,-1.474609 z m -2.009766,1.509766 c -0.181414,0.05884 -0.471262,0.296065 -0.796875,0.734374 -2.427295,3.267404 -4.727807,6.435341 -4.927734,10.6875 -1.64499,1.747363 -2.747449,4.386604 -2.310547,6.654297 0.39228,2.036091 1.096133,5.06364 0.587891,6.419922 1.752141,-0.113095 0.300296,-4.774967 0.283203,-6.5 -0.02121,-2.140504 0.486909,-4.618376 2.029297,-6.222656 0.325038,-3.81348 2.115451,-7.35997 4.798828,-10.681641 0.639324,-0.7914 0.638295,-1.18986 0.335937,-1.091796 z m -2.654297,2.326171 c -0.113901,-0.05247 -0.485265,0.108062 -1.152343,0.650391 -2.264337,1.840887 -2.99907,3.596956 -3.8125,6.310547 -1.29406,1.769004 -2.946252,4.952787 -2.703125,7.511719 0.153754,1.618278 0.366991,5.514197 0.673828,5.410156 0.306837,-0.104041 0.218851,-4.165283 0.433593,-6.072266 0.27574,-2.448657 1.206172,-4.674916 2.369141,-6.765625 0.668712,-2.428793 1.844548,-4.72682 3.796875,-6.412109 0.364247,-0.314426 0.508433,-0.58034 0.394531,-0.632813 z m -3.992187,0.427735 c -0.108116,-0.02109 -0.384499,0.03028 -0.835938,0.175781 -2.560024,0.825096 -3.009972,1.509424 -4.363281,3.798828 -3.358672,1.885243 -6.341903,5.499988 -6.853515,8.726563 0.26122,0.272906 1.263629,-2.060318 1.871093,-3.134766 1.248255,-2.207839 3.269851,-4.143962 5.5625,-5.289062 0.705688,-1.707748 2.145214,-2.835403 3.789063,-3.646485 0.722857,-0.356661 1.010271,-0.595701 0.830078,-0.630859 z m 1.80664,0.228515 c -0.18519,0.01837 -0.537523,0.133344 -0.984374,0.330079 -2.391732,1.053004 -3.407737,3.006365 -3.970704,4.449218 -1.397142,1.179731 -3.015447,2.5209 -4.240234,4.205078 -1.123724,1.54521 -1.888175,3.415008 -2.449219,4.960938 0.380645,0.490712 1.555106,-2.209148 2.298828,-3.34375 1.338457,-2.041913 2.813106,-4.048871 4.802735,-5.462891 0.606008,-2.219014 2.748718,-3.736478 3.748047,-4.349609 0.948333,-0.581843 1.103573,-0.819677 0.794921,-0.789063 z m -3.816406,5.470703 c -0.142836,-0.0261 -0.648684,0.375879 -1.578125,1.394532 -2.19718,2.408074 -4.170419,5.690181 -3.86914,9.103515 0.466819,0.05278 0.70939,-2.959245 1.628906,-4.677734 0.830601,-1.552313 1.527187,-2.653336 2.691406,-4.007813 0.893291,-1.039271 1.3106,-1.778941 1.126953,-1.8125 z"
       id="path4240"
       inkscape:connector-curvature="0" />
    <path
       style="fill:#000000;fill-rule:evenodd;stroke:none;stroke-width:0.35433072;stroke-linecap:butt;stroke-linejoin:miter;stroke-miterlimit:4;stroke-dasharray:none;stroke-opacity:1"
       d="m 100.78481,35.654823 c -0.0468,-0.606455 -1.853138,-0.417687 -2.09922,0.353553 -0.376842,1.181052 0.04632,1.778924 1.126952,2.386485 0.225708,0.126898 1.810718,0.280004 1.878248,-0.508233 0.0487,-0.568822 -0.3344,-0.933498 -0.95089,-1.059735 -0.68435,-0.140134 -1.233685,0.03526 -1.303004,-0.354478 -0.154683,-0.869686 1.380684,-0.39315 1.347914,-0.817592 z"
       id="path4374"
       inkscape:connector-curvature="0"
       sodipodi:nodetypes="sssssss" />
    <path
       style="fill:#000000;fill-rule:evenodd;stroke:none;stroke-width:0.35433072;stroke-linecap:butt;stroke-linejoin:miter;stroke-miterlimit:4;stroke-dasharray:none;stroke-opacity:1"
       d="m 104.12147,37.48888 c -0.26559,-0.378727 -0.76715,-0.430714 -1.14904,0.353554 -0.65556,-0.33883 -0.66157,0.09644 -0.75131,0.662913 -0.33231,0.803718 -0.16101,1.103828 0.0884,1.325825 0.19151,0.04546 0.38302,0.06361 0.57453,-0.353553 -0.0195,0.454854 0.32912,0.443383 0.66291,0.309359 0.58258,-0.650016 0.5358,-1.301911 0.57451,-2.298098 z"
       id="path4376"
       inkscape:connector-curvature="0"
       sodipodi:nodetypes="ccccccc" />
    <path
       style="color:#000000;display:inline;overflow:visible;visibility:visible;opacity:1;fill:#170000;fill-opacity:1;fill-rule:nonzero;stroke:none;stroke-width:0.35433072;stroke-linecap:round;stroke-linejoin:miter;stroke-miterlimit:4;stroke-dasharray:none;stroke-dashoffset:0;stroke-opacity:1;marker:none;enable-background:accumulate"
       d="m 91,19.924206 c 0,0.482811 -0.32552,0.904924 -0.79248,1.027627 -0.46696,0.122704 -0.95795,-0.08486 -1.1953,-0.505299 -0.23735,-0.420443 -0.16138,-0.948056 0.18494,-1.284464 0.34632,-0.336408 0.87591,-0.397026 1.28929,-0.147575 -0.61479,0.05935 -1.06278,0.751837 -0.68831,1.22324 C 90.15231,19.647706 90.64583,19.71955 91,19.924206 Z"
       id="path4378"
       inkscape:connector-curvature="0"
       sodipodi:nodetypes="csssccc" />
    <path
       style="fill:#8b3c0c;fill-opacity:1;fill-rule:evenodd;stroke:#ff8080;stroke-width:0.29055119;stroke-linecap:butt;stroke-linejoin:miter;stroke-miterlimit:4;stroke-dasharray:none;stroke-opacity:1"
       d="M 84.47498,12.1083 C 84.37968,10.2485 84.31899,8.4465099 84.05514,6.3058709 l 1.91919,-2.881932 c 1.02954,-0.796362 1.5237,-1.860405 3.10291,-2.381932 l 0.4779,1.763864 0.125,2.875 0.875,2.749999 c -0.3042,1.8551201 -1.08319,2.1671201 -1.625,3.2500001 l 0.125,0"
       id="path4485-9"
       inkscape:connector-curvature="0"
       sodipodi:nodetypes="ccccccccc" />
    <path
       style="color:#000000;font-style:normal;font-variant:normal;font-weight:normal;font-stretch:normal;font-size:medium;line-height:normal;font-family:sans-serif;text-indent:0;text-align:start;text-decoration:none;text-decoration-line:none;text-decoration-style:solid;text-decoration-color:#000000;letter-spacing:normal;word-spacing:normal;text-transform:none;direction:ltr;block-progression:tb;writing-mode:lr-tb;baseline-shift:baseline;text-anchor:start;white-space:normal;clip-rule:nonzero;display:inline;overflow:visible;visibility:visible;opacity:1;isolation:auto;mix-blend-mode:normal;color-interpolation:sRGB;color-interpolation-filters:linearRGB;solid-color:#000000;solid-opacity:1;fill:#2b1000;fill-opacity:1;fill-rule:evenodd;stroke:none;stroke-width:1px;stroke-linecap:butt;stroke-linejoin:miter;stroke-miterlimit:4;stroke-dasharray:none;stroke-dashoffset:0;stroke-opacity:1;color-rendering:auto;image-rendering:auto;shape-rendering:auto;text-rendering:auto;enable-background:accumulate"
       d="m 86.88927,2.079088 c -1.185479,1.0908549 -2.361929,2.2582706 -3.115039,3.7026301 -0.341126,0.6542325 -0.520094,1.4212682 -0.308476,2.1514194 0.228963,0.7899978 0.642204,1.5482464 0.564468,2.4067755 -0.03449,0.380901 -0.362649,1.212187 -0.251854,1.510352 0.442525,1.190898 0.892936,1.002728 1.127882,-0.184249 0.193462,-0.977394 0.256311,-2.0276375 -0.118405,-2.9851219 -0.246224,-0.6291574 -0.596851,-1.3378743 -0.300096,-2.021704 0.5879,-1.3547322 1.232408,-2.5851752 2.291942,-3.5828151 0.482095,-0.4539324 1.145868,-1.0289106 1.822784,-1.234743 0.317826,-0.096643 0.181656,0.484797 0.176471,0.694548 -0.02293,0.9276994 -0.159779,1.8718158 0.09539,2.784318 0.232697,0.8321388 0.816296,2.2422369 0.591701,3.1333029 -0.294915,1.1700547 -0.598159,2.2017551 -1.266874,3.0982001 -0.675061,0.90495 0.561586,0.908223 1.072215,0.405615 1.029818,-1.013642 1.83263,-2.5559092 1.853338,-3.9194619 0.01596,-1.050993 -0.774093,-2.2094788 -1.064248,-3.17629 C 89.762741,3.8698178 89.989589,2.4560204 89.87702,1.4403069 89.824341,0.96497959 89.549867,0.27350408 88.77543,0.30535969 88.000993,0.33721531 87.449233,1.5638211 86.88927,2.079088 Z"
       id="path4223"
       inkscape:connector-curvature="0"
       sodipodi:nodetypes="ssssssssssssssssssss" />
    <path
       style="fill:url(#radialGradient6468);fill-opacity:1;fill-rule:evenodd;stroke:none;stroke-width:0.29055119;stroke-linecap:butt;stroke-linejoin:miter;stroke-miterlimit:4;stroke-dasharray:none;stroke-opacity:1"
       d="m 87.504464,4.4000714 c -0.40511,-0.016865 -2.247288,2.0589437 -2.146574,3.0935921 0.07791,0.8003397 0.910618,1.232808 1.073287,2.0203051 0.140037,0.6779324 -0.252538,1.8940364 -0.252538,1.8940364 l 1.38896,0 c 0,0 1.170908,-1.6468175 1.136422,-2.5885162 C 88.674392,8.0104197 88.23073,7.4041761 87.883272,6.6729146 87.628295,6.1362895 88.098071,4.4247843 87.504464,4.4000714 Z"
       id="path4225"
       inkscape:connector-curvature="0"
       sodipodi:nodetypes="sssccsss" />
    <path
       style="display:inline;opacity:0.52700016;fill:url(#pattern6397-4);fill-opacity:1;fill-rule:evenodd;stroke:none;stroke-width:0.29055119;stroke-linecap:butt;stroke-linejoin:miter;stroke-miterlimit:4;stroke-dasharray:none;stroke-opacity:1"
       d="m 87.50447,4.4000717 c -0.40511,-0.01687 -2.24729,2.058943 -2.14658,3.093592 0.0779,0.800339 0.91062,1.232808 1.07329,2.020305 0.14004,0.6779323 -0.25254,1.8940363 -0.25254,1.8940363 l 1.38896,0 c 0,0 1.17091,-1.6468173 1.13642,-2.5885163 -0.0296,-0.809069 -0.47329,-1.415313 -0.82074,-2.146574 -0.25498,-0.536625 0.21479,-2.24813 -0.37881,-2.272843 z"
       id="path4225-2"
       inkscape:connector-curvature="0"
       sodipodi:nodetypes="sssccsss" />
  </g>
</svg>
