<?xml version="1.0" encoding="UTF-8" standalone="no"?>
<svg
     xmlns:dc="http://purl.org/dc/elements/1.1/"
     xmlns:cc="http://creativecommons.org/ns#"
     xmlns:rdf="http://www.w3.org/1999/02/22-rdf-syntax-ns#"
     xmlns:svg="http://www.w3.org/2000/svg"
     xmlns="http://www.w3.org/2000/svg"
     xmlns:xlink="http://www.w3.org/1999/xlink"
     xmlns:sodipodi="http://sodipodi.sourceforge.net/DTD/sodipodi-0.dtd"
     xmlns:inkscape="http://www.inkscape.org/namespaces/inkscape"
     id="svg2"
     viewBox="0 0 263.08419 263.00614"
     version="1.1"
     inkscape:version="0.48.3.1 r9886"
     width="100%"
     height="100%"
     sodipodi:docname="shiny-coin1.svg">
    <defs
         id="defs37">
        <linearGradient
             inkscape:collect="always"
             xlink:href="#linearGradient6386-8"
             id="linearGradient6392-5"
             x1="717.5"
             y1="145.375"
             x2="925"
             y2="144.125"
             gradientUnits="userSpaceOnUse"
             gradientTransform="matrix(1,0,0,0.79591837,0,21.632653)" />
        <linearGradient
             inkscape:collect="always"
             id="linearGradient6386-8">
            <stop
                 style="stop-color:#ffffff;stop-opacity:1;"
                 offset="0"
                 id="stop6388-5" />
            <stop
                 style="stop-color:#ffffff;stop-opacity:0.27983539"
                 offset="1"
                 id="stop6390-2" />
        </linearGradient>
        <linearGradient
             y2="144.125"
             x2="925"
             y1="145.375"
             x1="717.5"
             gradientTransform="matrix(1,0,0,0.40816326,0.625,119.60969)"
             gradientUnits="userSpaceOnUse"
             id="linearGradient6409-4"
             xlink:href="#linearGradient6386-8-5"
             inkscape:collect="always" />
        <linearGradient
             inkscape:collect="always"
             id="linearGradient6386-8-5">
            <stop
                 style="stop-color:#ffffff;stop-opacity:1;"
                 offset="0"
                 id="stop6388-5-8" />
            <stop
                 style="stop-color:#ffffff;stop-opacity:0.27983539"
                 offset="1"
                 id="stop6390-2-1" />
        </linearGradient>
        <linearGradient
             inkscape:collect="always"
             xlink:href="#linearGradient6386-8-5-6"
             id="linearGradient6567-5"
             gradientUnits="userSpaceOnUse"
             gradientTransform="matrix(1,0,0,0.20952065,-4.375,51.790808)"
             x1="717.5"
             y1="145.375"
             x2="925"
             y2="144.125" />
        <linearGradient
             inkscape:collect="always"
             id="linearGradient6386-8-5-6">
            <stop
                 style="stop-color:#ffffff;stop-opacity:1;"
                 offset="0"
                 id="stop6388-5-8-4" />
            <stop
                 style="stop-color:#ffffff;stop-opacity:0.27983539"
                 offset="1"
                 id="stop6390-2-1-8" />
        </linearGradient>
        <linearGradient
             inkscape:collect="always"
             xlink:href="#linearGradient6386-8-5-66"
             id="linearGradient6567-9"
             gradientUnits="userSpaceOnUse"
             gradientTransform="matrix(1,0,0,0.20952065,-4.375,51.790808)"
             x1="717.5"
             y1="145.375"
             x2="925"
             y2="144.125" />
        <linearGradient
             inkscape:collect="always"
             id="linearGradient6386-8-5-66">
            <stop
                 style="stop-color:#ffffff;stop-opacity:1;"
                 offset="0"
                 id="stop6388-5-8-8" />
            <stop
                 style="stop-color:#ffffff;stop-opacity:0.27983539"
                 offset="1"
                 id="stop6390-2-1-2" />
        </linearGradient>
        <linearGradient
             inkscape:collect="always"
             xlink:href="#linearGradient6386-8-5-66-3"
             id="linearGradient6736-3"
             gradientUnits="userSpaceOnUse"
             gradientTransform="matrix(1.0629942,0,0,0.27817083,-1614.6523,201.75778)"
             x1="717.5"
             y1="145.375"
             x2="925"
             y2="144.125" />
        <linearGradient
             inkscape:collect="always"
             id="linearGradient6386-8-5-66-3">
            <stop
                 style="stop-color:#ffffff;stop-opacity:1;"
                 offset="0"
                 id="stop6388-5-8-8-1" />
            <stop
                 style="stop-color:#ffffff;stop-opacity:0.27983539"
                 offset="1"
                 id="stop6390-2-1-2-6" />
        </linearGradient>
        <linearGradient
             y2="144.125"
             x2="925"
             y1="145.375"
             x1="717.5"
             gradientTransform="matrix(1.0629942,0,0,0.27817083,-1616.2757,183.498)"
             gradientUnits="userSpaceOnUse"
             id="linearGradient6756-5"
             xlink:href="#linearGradient6386-8-5-66-3-8"
             inkscape:collect="always" />
        <linearGradient
             inkscape:collect="always"
             id="linearGradient6386-8-5-66-3-8">
            <stop
                 style="stop-color:#ffffff;stop-opacity:1;"
                 offset="0"
                 id="stop6388-5-8-8-1-9" />
            <stop
                 style="stop-color:#ffffff;stop-opacity:0.27983539"
                 offset="1"
                 id="stop6390-2-1-2-6-9" />
        </linearGradient>
        <linearGradient
             inkscape:collect="always"
             xlink:href="#linearGradient6386-1-9-9"
             id="linearGradient6893-3"
             gradientUnits="userSpaceOnUse"
             gradientTransform="matrix(0.45085314,-0.96264641,0.49122687,0.23006492,-320.83681,1278.0849)"
             x1="717.5"
             y1="145.375"
             x2="925"
             y2="144.125" />
        <linearGradient
             inkscape:collect="always"
             id="linearGradient6386-1-9-9">
            <stop
                 style="stop-color:#ffffff;stop-opacity:1;"
                 offset="0"
                 id="stop6388-6-4-6" />
            <stop
                 style="stop-color:#ffffff;stop-opacity:0.27983539"
                 offset="1"
                 id="stop6390-9-0-5" />
        </linearGradient>
        <linearGradient
             y2="144.125"
             x2="925"
             y1="145.375"
             x1="717.5"
             gradientTransform="matrix(0.45085314,-0.96264641,0.49122687,0.23006492,-789.58734,1286.8295)"
             gradientUnits="userSpaceOnUse"
             id="linearGradient6914-5"
             xlink:href="#linearGradient6386-1-9-9-5"
             inkscape:collect="always" />
        <linearGradient
             inkscape:collect="always"
             id="linearGradient6386-1-9-9-5">
            <stop
                 style="stop-color:#ffffff;stop-opacity:1;"
                 offset="0"
                 id="stop6388-6-4-6-0" />
            <stop
                 style="stop-color:#ffffff;stop-opacity:0.27983539"
                 offset="1"
                 id="stop6390-9-0-5-4" />
        </linearGradient>
        <linearGradient
             y2="144.125"
             x2="925"
             y1="145.375"
             x1="717.5"
             gradientTransform="matrix(0.43644842,-0.93188993,0.47553221,0.22271436,617.26508,899.88851)"
             gradientUnits="userSpaceOnUse"
             id="linearGradient6957-1"
             xlink:href="#linearGradient6386-1-9-9-5-3"
             inkscape:collect="always" />
        <linearGradient
             inkscape:collect="always"
             id="linearGradient6386-1-9-9-5-3">
            <stop
                 style="stop-color:#ffffff;stop-opacity:1;"
                 offset="0"
                 id="stop6388-6-4-6-0-8" />
            <stop
                 style="stop-color:#ffffff;stop-opacity:0.27983539"
                 offset="1"
                 id="stop6390-9-0-5-4-3" />
        </linearGradient>
        <linearGradient
             inkscape:collect="always"
             xlink:href="#linearGradient6386-1-9-0"
             id="linearGradient6893-6"
             gradientUnits="userSpaceOnUse"
             gradientTransform="matrix(0.45085314,-0.96264641,0.49122687,0.23006492,-320.83681,1278.0849)"
             x1="717.5"
             y1="145.375"
             x2="925"
             y2="144.125" />
        <linearGradient
             inkscape:collect="always"
             id="linearGradient6386-1-9-0">
            <stop
                 style="stop-color:#ffffff;stop-opacity:1;"
                 offset="0"
                 id="stop6388-6-4-7" />
            <stop
                 style="stop-color:#ffffff;stop-opacity:0.27983539"
                 offset="1"
                 id="stop6390-9-0-0" />
        </linearGradient>
        <linearGradient
             y2="144.125"
             x2="925"
             y1="145.375"
             x1="717.5"
             gradientTransform="matrix(0.45085314,-0.96264641,0.49122687,0.23006492,-789.58734,1286.8295)"
             gradientUnits="userSpaceOnUse"
             id="linearGradient6914-7"
             xlink:href="#linearGradient6386-1-9-9-50"
             inkscape:collect="always" />
        <linearGradient
             inkscape:collect="always"
             id="linearGradient6386-1-9-9-50">
            <stop
                 style="stop-color:#ffffff;stop-opacity:1;"
                 offset="0"
                 id="stop6388-6-4-6-1" />
            <stop
                 style="stop-color:#ffffff;stop-opacity:0.27983539"
                 offset="1"
                 id="stop6390-9-0-5-2" />
        </linearGradient>
        <filter
             inkscape:collect="always"
             id="filter5833"
             x="-0.46711537"
             width="1.9342307"
             y="-0.26193675"
             height="1.5238734"
             color-interpolation-filters="sRGB">
            <feGaussianBlur
                 inkscape:collect="always"
                 stdDeviation="21.537181"
                 id="feGaussianBlur5835" />
        </filter>
        <filter
             inkscape:collect="always"
             id="filter5857"
             x="-1.5141883"
             width="4.0283766"
             y="-1.8796085"
             height="4.7592173"
             color-interpolation-filters="sRGB">
            <feGaussianBlur
                 inkscape:collect="always"
                 stdDeviation="21.537181"
                 id="feGaussianBlur5859" />
        </filter>
    </defs>
    <sodipodi:namedview
         pagecolor="#ffffff"
         bordercolor="#666666"
         borderopacity="1"
         objecttolerance="10"
         gridtolerance="10"
         guidetolerance="10"
         inkscape:pageopacity="0"
         inkscape:pageshadow="2"
         inkscape:window-width="1920"
         inkscape:window-height="1124"
         id="namedview35"
         showgrid="false"
         inkscape:zoom="0.9"
         inkscape:cx="714.91475"
         inkscape:cy="292.73997"
         inkscape:window-x="0"
         inkscape:window-y="24"
         inkscape:window-maximized="1"
         inkscape:current-layer="svg2"
         fit-margin-top="6"
         fit-margin-left="6"
         fit-margin-right="6"
         fit-margin-bottom="6" />
    <title
         id="title7506">Coin thumbs up</title>
    <metadata
         id="metadata33">
        <rdf:RDF>
            <cc:Work>
                <dc:format>image/svg+xml</dc:format>
                <dc:type
                     rdf:resource="http://purl.org/dc/dcmitype/StillImage" />
                <cc:license
                     rdf:resource="http://creativecommons.org/licenses/publicdomain/" />
                <dc:publisher>
                    <cc:Agent
                         rdf:about="http://openclipart.org/">
                        <dc:title>Openclipart</dc:title>
                    </cc:Agent>
                </dc:publisher>
                <dc:title>Coin thumbs up</dc:title>
                <dc:date>2013-08-15T14:44:31</dc:date>
                <dc:description>Coin with thumbs up</dc:description>
                <dc:source>https://openclipart.org/detail/181846/coin-thumbs-up-by-ahninniah-181846</dc:source>
                <dc:creator>
                    <cc:Agent>
                        <dc:title>AhNinniah</dc:title>
                    </cc:Agent>
                </dc:creator>
                <dc:subject>
                    <rdf:Bag>
                        <rdf:li>coin</rdf:li>
                        <rdf:li>coin thumbs up</rdf:li>
                        <rdf:li>gold coin</rdf:li>
                        <rdf:li>money</rdf:li>
                        <rdf:li>vector</rdf:li>
                    </rdf:Bag>
                </dc:subject>
            </cc:Work>
            <cc:License
                 rdf:about="http://creativecommons.org/licenses/publicdomain/">
                <cc:permits
                     rdf:resource="http://creativecommons.org/ns#Reproduction" />
                <cc:permits
                     rdf:resource="http://creativecommons.org/ns#Distribution" />
                <cc:permits
                     rdf:resource="http://creativecommons.org/ns#DerivativeWorks" />
            </cc:License>
        </rdf:RDF>
    </metadata>
    <g
         id="g6504"
         transform="translate(0,2)">
        <path
             inkscape:connector-curvature="0"
             id="path9056-6-2-3-3-0-6"
             style="color:#000000;fill:#d5b04f"
             d="m 126.64849,5.22481 c -69.026318,0 -124.9643385,55.94296 -124.9643385,124.96436 0,69.02634 55.9429705,124.98291 124.9643385,124.98291 3.3405,0 6.6507,-0.12969 9.9252,-0.38692 C 72.190812,249.72683 21.515362,195.86913 21.515362,130.18607 c 0,-65.68306 50.67669,-119.52224 115.058328,-124.5805 -3.2743,-0.25726 -6.585,-0.38696 -9.9252,-0.38696 z" />
        <path
             style="fill:#c89c31;fill-rule:evenodd"
             inkscape:connector-curvature="0"
             id="path9058-2-2-3-4-1-7"
             d="m 108.63199,6.51878 c -7.9837,1.1533 -15.719658,3.06176 -23.139868,5.64952 5.29098,0.3127 11.60055,0.50011 18.399768,0.52239 6.8377,-2.47954 13.9483,-4.38855 21.2825,-5.64953 -4.799,-0.28763 -10.4441,-0.47132 -16.5424,-0.52238 z M 85.608512,20.83606 c -7.65673,0 -14.71972,0.21787 -20.50854,0.58043 -2.4666,1.39861 -4.87773,2.87275 -7.23634,4.43059 4.58189,0.50846 10.9449,0.8856 18.2642,1.06416 3.17804,-2.1693 6.44944,-4.20071 9.82863,-6.07518 -0.11714,-9e-5 -0.23081,0 -0.3482,0 z m -21.86319,14.35629 c -7.2382,0.0644 -13.81765,0.32738 -19.09632,0.71584 -1.60731,1.39935 -3.18738,2.83596 -4.72084,4.31456 4.72715,0.50915 11.27986,0.87898 18.76695,1.04478 2.13109,-2.10404 4.3397,-4.12759 6.61721,-6.07518 -0.52086,0.002 -1.05251,-0.004 -1.56719,0 z m -15.05219,14.31729 c -6.74599,0.06 -12.92735,0.2907 -18.01284,0.63844 -1.26017,1.5095 -2.46766,3.05545 -3.65669,4.62413 5.07064,0.45464 11.72005,0.77588 19.17372,0.88999 1.56174,-2.09784 3.16892,-4.15892 4.85622,-6.15256 -0.79037,-0.003 -1.5852,-0.007 -2.36035,0 z m -8.10683,14.31729 c -7.55953,0.0144 -14.51974,0.2322 -20.19898,0.59977 -0.97475,1.57177 -1.91886,3.16169 -2.82477,4.77891 5.26356,0.42057 11.95471,0.71206 19.38607,0.79323 1.15486,-2.09704 2.36778,-4.1505 3.63737,-6.17194 z m -11.55042,14.33648 c -5.84034,0 -11.33929,0.12845 -16.19384,0.34824 -0.80735,1.77529 -1.55748,3.57948 -2.28304,5.39804 5.38225,0.29025 11.69467,0.44499 18.47719,0.44499 0.39136,0 0.77249,8.2e-4 1.16087,0 0.82269,-2.08595 1.70123,-4.14256 2.63128,-6.17192 -1.24556,-0.0116 -2.5116,-0.0193 -3.79215,-0.0193 z m -9.11291,14.33647 c -4.41492,0 -8.61947,0.0832 -12.5181005,0.21282 -0.58985,1.87936 -1.12285,3.7911 -1.62521,5.7076 4.3356805,0.16612 9.1110605,0.27087 14.1433105,0.27087 1.91409,0 3.77914,-0.013 5.61083,-0.0387 0.53418,-2.05456 1.12594,-4.08252 1.76061,-6.09455 -2.37993,-0.0443 -4.84107,-0.058 -7.37131,-0.058 z M 9.0108815,106.83636 c -1.76903,0.0157 -3.46407,0.0587 -5.14648,0.0967 -0.37272,1.98015 -0.68921,3.96648 -0.96738,5.9784 3.09073,0.0774 6.3386,0.11609 9.7128405,0.11609 3.51335,0 6.89458,-0.0518 10.09918,-0.13544 0.27445,-1.98195 0.6011,-3.94996 0.96738,-5.90101 -3.48679,-0.10075 -7.19672,-0.15478 -11.06687,-0.15478 -1.21987,0 -2.41051,-0.0106 -3.5986705,0 z m 3.5986705,14.31728 c -3.6959305,0 -7.2536805,0.0432 -10.6025405,0.13543 -0.13775,1.95769 -0.22431,3.91951 -0.27086,5.90102 3.42903,0.0972 7.07537,0.15478 10.8730805,0.15478 3.10202,0 6.09023,-0.031 8.95814,-0.0967 0.0464,-2.01457 0.1302,-4.00784 0.27093,-5.99778 -2.94872,-0.0699 -6.02936,-0.0967 -9.22868,-0.0967 z m 0,14.33648 c -3.7686805,0 -7.3898905,0.0591 -10.7963105,0.15478 0.0851,1.97972 0.2108,3.94625 0.38694,5.90101 3.29264,0.0889 6.78439,0.13544 10.4087605,0.13544 3.27634,0 6.42962,-0.043 9.44166,-0.11609 -0.17856,-1.97847 -0.32102,-3.97448 -0.40633,-5.9784 -2.89089,-0.0669 -5.90547,-0.0967 -9.03553,-0.0967 z m 0,14.33647 c -3.2484305,0 -6.3763805,0.0442 -9.3642805,0.1161 0.3199,2.01488 0.68785,4.01614 1.10285,5.99778 2.65574,0.0558 5.41042,0.0774 8.2616105,0.0774 4.05905,0 7.93782,-0.0637 11.57022,-0.17413 -0.40571,-1.94456 -0.78864,-3.90514 -1.10278,-5.88169 -3.3104,-0.0898 -6.82153,-0.13544 -10.46694,-0.13544 z m -3.5986705,14.33648 c -0.90443,0.008 -1.74829,0.0247 -2.63129,0.0387 0.5821,2.06281 1.2122,4.11515 1.89607,6.13319 1.42226,0.0153 2.8646405,0.0193 4.3338905,0.0193 5.53524,0 10.75298,-0.11078 15.41994,-0.30956 -0.62605,-1.86134 -1.2211,-3.7308 -1.76066,-5.63021 -4.20536,-0.15451 -8.81636,-0.25152 -13.65916,-0.25152 -1.21986,0 -2.4105,-0.0106 -3.5986605,0 z m 13.6399605,14.31729 c -3.92822,0 -7.6914,0.0511 -11.22166,0.15478 0.84257,2.00188 1.7278,3.99256 2.67005,5.93977 2.74433,0.0599 5.59597,0.0967 8.55136,0.0967 3.94278,0 7.71741,-0.0504 11.26066,-0.15478 -0.94299,-1.9505 -1.82704,-3.93436 -2.67004,-5.93977 -2.75685,-0.0604 -5.62073,-0.0967 -8.59037,-0.0967 z m 3.65674,14.33647 c -2.67679,0 -5.27037,0.028 -7.77746,0.0774 1.20198,2.06863 2.47707,4.10339 3.79215,6.09456 1.30889,0.0129 2.63773,0.0193 3.98562,0.0193 5.62687,0 10.92943,-0.1239 15.65213,-0.32891 -1.21981,-1.85831 -2.39974,-3.74336 -3.52135,-5.66884 -3.78948,-0.12158 -7.86165,-0.19347 -12.13115,-0.19347 z m 16.42603,14.33649 c -5.10828,0 -9.94935,0.1 -14.33648,0.27086 1.56299,1.98616 3.19742,3.9179 4.87562,5.80431 3.01768,0.0734 6.17776,0.11608 9.46086,0.11608 3.60393,0 7.07475,-0.0476 10.35117,-0.13543 -1.7377,-1.95408 -3.41634,-3.95621 -5.0304,-6.01716 -1.73962,-0.0231 -3.5076,-0.0387 -5.32058,-0.0387 z m 9.11291,14.31727 c -3.61786,0 -7.10261,0.0469 -10.38954,0.13543 2.24643,2.09527 4.5689,4.10963 6.96516,6.0365 1.12637,0.009 2.26991,0.0191 3.42457,0.0191 5.77149,0 11.20493,-0.1139 16.01989,-0.32893 -2.27022,-1.84028 -4.48235,-3.75404 -6.61722,-5.74623 -3.00054,-0.0725 -6.14056,-0.11606 -9.4033,-0.11606 z m 22.83027,14.33649 c -5.13868,0 -10.00631,0.098 -14.41387,0.27087 3.38421,2.12688 6.87477,4.09998 10.46694,5.90102 1.29626,0.0126 2.61247,0.0191 3.94693,0.0191 5.49716,0 10.6824,-0.11333 15.32337,-0.30956 -3.51912,-1.78754 -6.95651,-3.74184 -10.27378,-5.843 -1.65319,-0.0208 -3.33115,-0.0387 -5.04977,-0.0387 z m 30.550098,14.3365 c -4.5963,0 -8.972938,0.0923 -13.001598,0.23216 10.936198,3.12763 22.497798,4.79821 34.438898,4.79821 2.7989,0 5.5664,-0.09 8.3198,-0.27086 0.3847,-0.0526 0.7539,-0.10023 1.1028,-0.1548 -8.456,-0.69844 -16.6768,-2.24836 -24.5719,-4.54664 -2.0447,-0.0322 -4.138,-0.0582 -6.2878,-0.0582 z" />
        <path
             inkscape:connector-curvature="0"
             id="path9060-8-05-9-8-9-2"
             style="color:#000000;fill:#eed175"
             d="m 256.94919,129.69896 c 0,69.02345 -55.9556,124.97901 -124.9791,124.97901 -69.023418,0 -124.9789885,-55.95556 -124.9789885,-124.97901 0,-69.02345 55.9555705,-124.97901 124.9789885,-124.97901 69.0235,0 124.9791,55.95556 124.9791,124.97901 z" />
        <path
             inkscape:connector-curvature="0"
             id="path9062-1-9-6-8-7-4"
             style="color:#000000;fill:#c89c31"
             d="m 253.79249,130.61824 c 0,67.2594 -54.5255,121.78488 -121.7849,121.78488 -67.259368,0 -121.784848,-54.52548 -121.784848,-121.78488 0,-67.25938 54.52548,-121.78486 121.784848,-121.78486 67.2594,0 121.7849,54.52548 121.7849,121.78486 z" />
        <path
             inkscape:connector-curvature="0"
             id="path9064-0-69-5-4-1-3"
             style="color:#000000;fill:#ebc859"
             d="m 249.86659,130.89982 c 0,65.11074 -52.7837,117.89438 -117.8944,117.89438 -65.110748,0 -117.894368,-52.78364 -117.894368,-117.89438 0,-65.11074 52.78362,-117.89436 117.894368,-117.89436 65.1107,0 117.8944,52.78362 117.8944,117.89436 z" />
        <path
             inkscape:connector-curvature="0"
             id="path9068-5-2-9-9-4-2"
             style="color:#000000;fill:#f7e587"
             d="m 203.48989,222.97262 c 51.8406,-39.39559 61.9435,-113.35574 22.5474,-165.19515 -10.6398,-14.0009 -23.8191,-24.94148 -38.3846,-32.69913 9.363,6.9986 17.9422,15.39271 25.3698,25.16623 42.7377,56.2383 31.8993,136.38723 -24.1972,179.01404 -5.4151,4.1152 -11.0532,7.72238 -16.8606,10.8446 11.0464,-3.96492 21.6854,-9.65092 31.5258,-17.12933 z" />
        <path
             inkscape:connector-curvature="0"
             id="rect7789-0-1-6"
             d="M 54.684152,208.84464 C 80.025832,144.01051 105.38412,79.18284 130.7154,14.344646 c -20.14533,-0.92905 -40.440028,3.73642 -58.062498,13.40625 -17.54754,44.857954 -35.09148,89.718324 -52.59375,134.593754 6.43355,19.13797 18.30859,36.16624 33.5625,49.21874 0.35417,-0.90625 0.70833,-1.8125 1.0625,-2.71875 z"
             style="opacity:0.60082302;fill:#ffffff;fill-opacity:1;fill-rule:nonzero;stroke:none;filter:url(#filter5833)" />
    </g>
    <rect
         id="rect9052-3-9-4"
         style="color:#000000;fill:none"
         height="260.99713"
         width="159.95419"
         y="972.82013"
         x="-63.043777"
         transform="scale(-1,1)" />
    <path
         d="m -136.8753,1103.312 c 0,69.0233 34.2928,124.9788 76.594262,124.9788 42.3015,0 76.59425,-55.9555 76.59425,-124.9788 0,-69.0233 -34.29275,-124.97874 -76.59425,-124.97874 -42.301462,0 -76.594262,55.95544 -76.594262,124.97874 z"
         style="color:#000000;fill:#eed175"
         id="path9060-8-8-4"
         inkscape:connector-curvature="0" />
    <path
         d="m -134.9407,1104.2313 c 0,67.2593 33.4163,121.7846 74.636722,121.7846 41.22038,0 74.6367,-54.5253 74.6367,-121.7846 0,-67.2593 -33.41632,-121.78461 -74.6367,-121.78461 -41.220422,0 -74.636722,54.52531 -74.636722,121.78461 z"
         style="color:#000000;fill:#c89c31"
         id="path9062-1-1-3"
         inkscape:connector-curvature="0" />
    <path
         d="m -132.5347,1104.5129 c 0,65.1106 32.3488,117.8941 72.252392,117.8941 39.90357,0 72.25238,-52.7835 72.25238,-117.8941 0,-65.1107 -32.34881,-117.89413 -72.25238,-117.89413 -39.903592,0 -72.252392,52.78343 -72.252392,117.89413 z"
         style="color:#000000;fill:#ebc859"
         id="path9064-0-6-9"
         inkscape:connector-curvature="0" />
    <path
         d="m -7.7737385,1022.5002 c 27.4054905,47.3266 26.8921205,121.689 -2.11243,166.4084 -7.8334495,12.0772 -16.2770295,22.2358 -26.6337195,26.7555 6.36124,-5.377 11.76895,-12.7639 17.237,-21.1945 31.46469,-48.5109 32.9259,-129.3538 3.27054,-180.5616 -2.86269,-4.9436 -6.06565,-8.5383 -9.26505,-12.5669 6.28269,5.7142 12.30168,12.1763 17.5037395,21.1591 z"
         style="color:#000000;fill:#d2aa48"
         id="path9066-4-4-5"
         inkscape:connector-curvature="0" />
    <path
         d="m -65.789508,987.08636 c -13.64792,0 -26.05546,2.18433 -38.273662,15.12894 -19.06019,20.1946 -29.99173,59.6761 -29.99173,100.261 0,9.7995 0.73778,19.3148 2.11551,28.3962 13.22257,27.065 29.48707,30.5247 47.562242,30.5247 37.86916,0 67.77476,-51.0896 67.77476,-114.5443 0,-9.7859 -0.9491,-18.7527 -2.3232,-27.8228 -12.2512,-19.16563 -28.7855,-31.94498 -46.86786,-31.94498 z"
         style="opacity:0.5;color:#000000;fill:#f7e587"
         id="path9070-4-71-3"
         inkscape:connector-curvature="0" />
    <path
         d="m -47.977048,978.84749 c 42.3032995,0 76.58532,55.94281 76.58532,124.96411 0,69.0262 -34.2850205,124.9827 -76.58532,124.9827 -2.0472,0 -4.0759,-0.1297 -6.0827,-0.387 39.4575,-5.0583 70.5143,-58.9159 70.5143,-124.5988 0,-65.683 -31.0575,-119.522 -70.5143,-124.58025 2.0067,-0.25726 4.0357,-0.38696 6.0827,-0.38696 z"
         style="color:#000000;fill:#d5b04f"
         id="path9056-6-5-5-4"
         inkscape:connector-curvature="0" />
    <path
         d="m -36.935448,980.14146 c 4.8928,1.1533 9.6339,3.06175 14.1814,5.64951 -3.2426,0.3127 -7.1095,0.5001 -11.2764,0.52239 -4.1905,-2.47954 -8.5483,-4.38855 -13.0431,-5.64952 2.9411,-0.28764 6.4007,-0.47132 10.1381,-0.52238 z m 14.1101,14.31726 c 4.6925,0 9.0211,0.21786 12.5688,0.58042 1.5116995,1.39861 2.9892995,2.87274 4.4347995,4.43058 -2.808,0.50846 -6.7075995,0.88558 -11.1932995,1.06418 -1.9477,-2.16931 -3.9526,-4.20072 -6.0236,-6.07518 0.072,-10e-5 0.1415,0 0.2134,0 z m 13.3989995,14.35618 c 4.436,0.064 8.46820002,0.3274 11.7033,0.7159 0.9851,1.3993 1.9534,2.8359 2.8932,4.3145 -2.8971,0.5092 -6.9129,0.879 -11.5015,1.0448 -1.306,-2.104 -2.6596,-4.1276 -4.0553995,-6.0752 0.3193,0 0.6450995,0 0.9604995,0 z m 9.22480002,14.3173 c 4.13439998,0.06 7.92259998,0.2907 11.03930048,0.6384 0.7723,1.5095 1.5123,3.0555 2.2411,4.6242 -3.1076005,0.4546 -7.1828005,0.7758 -11.7508005,0.8899 -0.95709998,-2.0978 -1.94209998,-4.1589 -2.9762,-6.1525 0.4844,0 0.97150002,-0.01 1.44660002,0 z m 4.96839998,14.3173 c 4.6329,0.014 8.8985005,0.2322 12.3790005,0.5997 0.5974,1.5718 1.176,3.1617 1.7312,4.7789 -3.2258,0.4206 -7.3265,0.7121 -11.8809005,0.7933 -0.7077,-2.0971 -1.4511,-4.1505 -2.2292,-6.172 z m 7.0787005,14.3364 c 3.5793,0 6.9494,0.1285 9.9245,0.3483 0.4948,1.7752 0.9545,3.5794 1.3992,5.398 -3.2986,0.2902 -7.1672,0.445 -11.3239,0.445 -0.2398,0 -0.4734,10e-4 -0.7114,0 -0.5042,-2.086 -1.0426,-4.1426 -1.6126005,-6.1719 0.7633005,-0.012 1.5392005,-0.019 2.3240005,-0.019 z m 5.5849,14.3365 c 2.7057,0 5.2825,0.083 7.6718,0.2128 0.3615,1.8793 0.6882,3.7911 0.996,5.7076 -2.6571,0.1661 -5.5837,0.2708 -8.6678,0.2708 -1.173,0 -2.3161,-0.013 -3.4386,-0.039 -0.3274,-2.0545 -0.6901,-4.0825 -1.079,-6.0945 1.4585,-0.044 2.9669,-0.058 4.5175,-0.058 z m 6.6876,14.3364 c 1.0841,0.016 2.123,0.059 3.15404,0.097 0.22842,1.9802 0.42238,3.9665 0.59286,5.9784 -1.8942,0.077 -3.8847,0.1161 -5.9526,0.1161 -2.1532,0 -4.2254,-0.052 -6.1893,-0.1355 -0.1682,-1.9819 -0.3684,-3.9499 -0.5929,-5.901 2.1369,-0.1007 4.4106,-0.1547 6.7824,-0.1547 0.7476,0 1.4773,-0.011 2.2055,0 z m -2.2055,14.3173 c 2.2651,0 4.44548,0.043 6.49784,0.1354 0.0844,1.9577 0.13747,3.9195 0.16601,5.901 -2.10151,0.097 -4.33615,0.1548 -6.66365,0.1548 -1.9011,0 -3.7324,-0.031 -5.4901,-0.097 -0.029,-2.0146 -0.08,-4.0079 -0.166,-5.9978 1.8071,-0.07 3.6951,-0.097 5.6559,-0.097 z m 0,14.3364 c 2.3097,0 4.52895,0.059 6.61661,0.1548 -0.0522,1.9797 -0.1292,3.9462 -0.23715,5.901 -2.01796,0.089 -4.15786,0.1354 -6.37906,0.1354 -2.008,0 -3.9405,-0.043 -5.7864,-0.1161 0.1094,-1.9784 0.1967,-3.9744 0.249,-5.9783 1.7717,-0.067 3.6192,-0.097 5.5375,-0.097 z m 0,14.3365 c 1.9908,0 3.9078,0.044 5.73897,0.1161 -0.19605,2.0148 -0.42155,4.0161 -0.67589,5.9977 -1.62758,0.056 -3.31578,0.077 -5.06318,0.077 -2.4876,0 -4.8648,-0.064 -7.0909,-0.1741 0.2486,-1.9446 0.4833,-3.9051 0.6758,-5.8817 2.0289,-0.09 4.1807,-0.1354 6.4148,-0.1354 z m 2.2055,14.3364 c 0.5543,0.01 1.0714,0.025 1.6126,0.039 -0.3568,2.0628 -0.7429,4.1152 -1.162,6.1332 -0.8717,0.015 -1.7557,0.019 -2.6561,0.019 -3.3923,0 -6.59,-0.1108 -9.4502,-0.3096 0.3837,-1.8613 0.7483,-3.7308 1.079,-5.6302 2.5773,-0.1545 5.4032,-0.2515 8.3711,-0.2515 0.7476,0 1.4773,-0.011 2.2055,0 z m -8.3594,14.3173 c 2.4075,0 4.7138,0.051 6.8773,0.1548 -0.5164,2.0018 -1.0589,3.9925 -1.6364,5.9397 -1.6818,0.06 -3.4295,0.097 -5.2407,0.097 -2.4164,0 -4.7297,-0.05 -6.9012005,-0.1548 0.5779,-1.9505 1.1197,-3.9343 1.6364005,-5.9397 1.6895,-0.06 3.4447,-0.097 5.2646,-0.097 z m -2.241,14.3364 c 1.6405,0 3.23,0.028 4.7664,0.077 -0.7366,2.0686 -1.518,4.1034 -2.324,6.0946 -0.8022,0.013 -1.6166,0.019 -2.4426,0.019 -3.4485,0 -6.6982005,-0.1239 -9.5925005,-0.3289 0.7475,-1.8583 1.4707,-3.7434 2.158,-5.6689 2.3225,-0.1216 4.8181005,-0.1934 7.4347005,-0.1934 z m -10.0668005,14.3365 c 3.1306,0 6.0975,0.1 8.7862005,0.2708 -0.9579,1.9862 -1.9596,3.9179 -2.9881005,5.8043 -1.8494,0.073 -3.7861,0.1161 -5.7981,0.1161 -2.2087,0 -4.33579998,-0.048 -6.3438,-0.1354 1.0649,-1.9541 2.09370002,-3.9562 3.08290002,-6.0172 1.06609998,-0.023 2.14959998,-0.039 3.26069998,-0.039 z m -5.5849,14.3172 c 2.21720002,0 4.3528,0.047 6.3673,0.1355 -1.3768,2.0952 -2.8001,4.1096 -4.26869998,6.0364 -0.6903,0.01 -1.39110002,0.019 -2.09880002,0.019 -3.5371,0 -6.867,-0.1139 -9.8178995,-0.3289 1.3914,-1.8403 2.7470995,-3.754 4.0554995,-5.7462 1.8388,-0.072 3.7632,-0.1161 5.7628,-0.1161 z m -13.9916995,14.3365 c 3.1492,0 6.1323995,0.098 8.8335995,0.2709 -2.074,2.1268 -4.2131995,4.0999 -6.4146995,5.901 -0.7945,0.013 -1.6011,0.019 -2.4189,0.019 -3.369,0 -6.5468,-0.1134 -9.3911,-0.3096 2.1567,-1.7875 4.2634,-3.7418 6.2964,-5.843 1.0132,-0.021 2.0415,-0.039 3.0948,-0.039 z m -18.7229,14.3364 c 2.8169,0 5.4992,0.092 7.9681,0.2322 -6.7023,3.1276 -13.7879,4.7982 -21.1061,4.7982 -1.7153,0 -3.4113,-0.09 -5.0988,-0.2708 -0.2358,-0.053 -0.4621,-0.1003 -0.6759,-0.1548 5.1824,-0.6985 10.2205,-2.2484 15.0591,-4.5467 1.2531,-0.032 2.536,-0.058 3.8535,-0.058 z"
         id="path9058-2-1-7-9"
         inkscape:connector-curvature="0"
         style="fill:#c89c31;fill-rule:evenodd" />
    <path
         inkscape:connector-curvature="0"
         id="path7395-8"
         style="color:#000000;fill:#d5b04f"
         d="m -37.977048,978.84749 c 42.3032995,0 76.58532,55.94281 76.58532,124.96411 0,69.0262 -34.2850205,124.9827 -76.58532,124.9827 -2.0472,0 -4.0759,-0.1297 -6.0827,-0.387 39.4574995,-5.0583 70.5143,-58.9159 70.5143,-124.5988 0,-65.683 -31.0575005,-119.522 -70.5143,-124.58025 2.0067,-0.25726 4.0357,-0.38696 6.0827,-0.38696 z" />
    <path
         style="fill:#c89c31;fill-rule:evenodd"
         inkscape:connector-curvature="0"
         id="path7397-43"
         d="m -26.935448,980.14146 c 4.8928,1.1533 9.6339,3.06175 14.1814,5.64951 -3.2426,0.3127 -7.1095,0.5001 -11.2764,0.52239 -4.1905,-2.47954 -8.5483,-4.38855 -13.0431,-5.64952 2.9411,-0.28764 6.4007,-0.47132 10.1381,-0.52238 z m 14.1101,14.31726 c 4.6924995,0 9.0210995,0.21786 12.56879952,0.58042 1.51169998,1.39861 2.98929998,2.87274 4.43479998,4.43058 -2.808,0.50846 -6.7076,0.88558 -11.1933,1.06418 -1.9477,-2.16931 -3.9525995,-4.20072 -6.0235995,-6.07518 0.072,-10e-5 0.1415,0 0.2134,0 z m 13.39899952,14.35618 c 4.43599998,0.064 8.46819998,0.3274 11.70330048,0.7159 0.9851,1.3993 1.9534,2.8359 2.8932,4.3145 -2.8971,0.5092 -6.9129005,0.879 -11.5015005,1.0448 -1.306,-2.104 -2.6596,-4.1276 -4.05539998,-6.0752 0.3193,0 0.6451,0 0.9605,0 z m 9.22479998,14.3173 c 4.1344005,0.06 7.9226005,0.2907 11.0393005,0.6384 0.7723,1.5095 1.5123,3.0555 2.2411,4.6242 -3.1076,0.4546 -7.1828,0.7758 -11.7508,0.8899 -0.9571,-2.0978 -1.9421005,-4.1589 -2.9762005,-6.1525 0.4844,0 0.9715,-0.01 1.4466,0 z m 4.9684005,14.3173 c 4.6329,0.014 8.8985,0.2322 12.379,0.5997 0.5974,1.5718 1.176,3.1617 1.7312,4.7789 -3.2258,0.4206 -7.3265,0.7121 -11.8809,0.7933 -0.7077,-2.0971 -1.4511,-4.1505 -2.2292,-6.172 z m 7.0787,14.3364 c 3.5793,0 6.9494,0.1285 9.9245,0.3483 0.4948,1.7752 0.9545,3.5794 1.3992,5.398 -3.2986,0.2902 -7.1672,0.445 -11.3239,0.445 -0.2398,0 -0.4734,10e-4 -0.7114,0 -0.5042,-2.086 -1.0426,-4.1426 -1.6126,-6.1719 0.7633,-0.012 1.5392,-0.019 2.324,-0.019 z m 5.5849,14.3365 c 2.7057,0 5.2825,0.083 7.6718,0.2128 0.3615,1.8793 0.6882,3.7911 0.996,5.7076 -2.6571,0.1661 -5.5837,0.2708 -8.6678,0.2708 -1.173,0 -2.3161,-0.013 -3.4386,-0.039 -0.3274,-2.0545 -0.6901,-4.0825 -1.079,-6.0945 1.4585,-0.044 2.9669,-0.058 4.5175,-0.058 z m 6.6876,14.3364 c 1.0841,0.016 2.123,0.059 3.15404,0.097 0.22842,1.9802 0.42238,3.9665 0.59286,5.9784 -1.8942,0.077 -3.8847,0.1161 -5.9526,0.1161 -2.1532,0 -4.2254,-0.052 -6.1893,-0.1355 -0.1682,-1.9819 -0.3684,-3.9499 -0.5929,-5.901 2.1369,-0.1007 4.4106,-0.1547 6.7824,-0.1547 0.7476,0 1.4773,-0.011 2.2055,0 z m -2.2055,14.3173 c 2.2651,0 4.44548,0.043 6.49784,0.1354 0.0844,1.9577 0.13747,3.9195 0.16601,5.901 -2.10151,0.097 -4.33615,0.1548 -6.66365,0.1548 -1.9011,0 -3.7324,-0.031 -5.4901,-0.097 -0.029,-2.0146 -0.08,-4.0079 -0.166,-5.9978 1.8071,-0.07 3.6951,-0.097 5.6559,-0.097 z m 0,14.3364 c 2.3097,0 4.52895,0.059 6.61661,0.1548 -0.0522,1.9797 -0.1292,3.9462 -0.23715,5.901 -2.01796,0.089 -4.15786,0.1354 -6.37906,0.1354 -2.008,0 -3.9405,-0.043 -5.7864,-0.1161 0.1094,-1.9784 0.1967,-3.9744 0.249,-5.9783 1.7717,-0.067 3.6192,-0.097 5.5375,-0.097 z m 0,14.3365 c 1.9908,0 3.9078,0.044 5.73897,0.1161 -0.19605,2.0148 -0.42155,4.0161 -0.67589,5.9977 -1.62758,0.056 -3.31578,0.077 -5.06318,0.077 -2.4876,0 -4.8648,-0.064 -7.0909,-0.1741 0.2486,-1.9446 0.4833,-3.9051 0.6758,-5.8817 2.0289,-0.09 4.1807,-0.1354 6.4148,-0.1354 z m 2.2055,14.3364 c 0.5543,0.01 1.0714,0.025 1.6126,0.039 -0.3568,2.0628 -0.7429,4.1152 -1.162,6.1332 -0.8717,0.015 -1.7557,0.019 -2.6561,0.019 -3.3923,0 -6.59,-0.1108 -9.4502,-0.3096 0.3837,-1.8613 0.7483,-3.7308 1.079,-5.6302 2.5773,-0.1545 5.4032,-0.2515 8.3711,-0.2515 0.7476,0 1.4773,-0.011 2.2055,0 z m -8.3594,14.3173 c 2.4075,0 4.7138,0.051 6.8773,0.1548 -0.5164,2.0018 -1.0589,3.9925 -1.6364,5.9397 -1.6818,0.06 -3.4295,0.097 -5.2407,0.097 -2.4164,0 -4.7297,-0.05 -6.9012,-0.1548 0.5779,-1.9505 1.1197,-3.9343 1.6364,-5.9397 1.6895,-0.06 3.4447,-0.097 5.2646,-0.097 z m -2.241,14.3364 c 1.6405,0 3.23,0.028 4.7664,0.077 -0.7366,2.0686 -1.518,4.1034 -2.324,6.0946 -0.8022,0.013 -1.6166,0.019 -2.4426,0.019 -3.4485,0 -6.6982,-0.1239 -9.5925,-0.3289 0.7475,-1.8583 1.4707,-3.7434 2.158,-5.6689 2.3225,-0.1216 4.8181,-0.1934 7.4347,-0.1934 z m -10.0668,14.3365 c 3.1306,0 6.0975,0.1 8.7862,0.2708 -0.9579,1.9862 -1.9596,3.9179 -2.9881,5.8043 -1.8494,0.073 -3.7861,0.1161 -5.7981,0.1161 -2.2087,0 -4.3358005,-0.048 -6.3438005,-0.1354 1.0649,-1.9541 2.0937,-3.9562 3.0829005,-6.0172 1.0661,-0.023 2.1496,-0.039 3.2607,-0.039 z m -5.5849005,14.3172 c 2.2172005,0 4.3528005,0.047 6.3673005,0.1355 -1.3768,2.0952 -2.8001,4.1096 -4.2687005,6.0364 -0.6903,0.01 -1.3911,0.019 -2.0988,0.019 -3.5371,0 -6.86699998,-0.1139 -9.8179,-0.3289 1.39140002,-1.8403 2.74710002,-3.754 4.0555,-5.7462 1.8388,-0.072 3.7632,-0.1161 5.7628,-0.1161 z m -13.9917,14.3365 c 3.1492,0 6.13240002,0.098 8.8336,0.2709 -2.07399998,2.1268 -4.2132,4.0999 -6.4147,5.901 -0.7945,0.013 -1.6011,0.019 -2.4189,0.019 -3.369,0 -6.5467995,-0.1134 -9.3910995,-0.3096 2.1567,-1.7875 4.2634,-3.7418 6.2963995,-5.843 1.0132,-0.021 2.0415,-0.039 3.0948,-0.039 z m -18.7228995,14.3364 c 2.8169,0 5.4992,0.092 7.9681,0.2322 -6.7023,3.1276 -13.7879,4.7982 -21.1061,4.7982 -1.7153,0 -3.4113,-0.09 -5.0988,-0.2708 -0.2358,-0.053 -0.4621,-0.1003 -0.6759,-0.1548 5.1824,-0.6985 10.2205,-2.2484 15.0591,-4.5467 1.2531,-0.032 2.536,-0.058 3.8535,-0.058 z" />
    <path
         style="font-size:144px;font-style:normal;font-variant:normal;font-weight:bold;font-stretch:normal;text-indent:0;text-align:start;text-decoration:none;line-height:125%;letter-spacing:0px;word-spacing:0px;text-transform:none;direction:ltr;block-progression:tb;writing-mode:lr-tb;text-anchor:start;baseline-shift:baseline;color:#000000;fill:#c19442;fill-opacity:1;stroke:none;stroke-width:5;marker:none;visibility:visible;display:inline;overflow:visible;enable-background:accumulate;font-family:Comic Neue;-inkscape-font-specification:Comic Neue Bold"
         d="m -42.281398,1048.4109 c -5.08855,0.7098 -8.3414,7.4643 -11.85868,12.2541 -3.53825,4.8487 -8.01247,8.8077 -9.94409,15.747 -0.94703,5.7 2.16632,11.1542 5.64792,12.5771 2.08095,1.0767 4.24013,0.2835 6.2134,-0.8498 0.93465,-0.6652 2.0594,0.4742 1.84308,2.0714 -0.48213,7.3231 -0.2624,14.7584 -0.46486,22.1266 -0.0792,6.0974 -0.16567,12.1947 -0.24026,18.2923 -4.01618,-0.6241 -8.86728,-0.3025 -11.58904,4.9076 -3.05032,5.8986 -0.0663,15.4468 4.63562,16.4332 5.79835,1.346 11.75812,-0.2181 17.62088,0.4535 4.69194,0.092 9.76386,0.8803 14.0605,-2.4505 3.87462,-4.0711 3.66977,-14.5958 -0.8238,-17.5274 -1.91069,-2.8361 -5.12621,-0.4458 -7.07211,-3.0911 -1.0511,-2.0377 0.13792,-4.66 -0.17969,-6.947 0.21198,-22.022 1.09626,-44.071 0.52177,-66.0832 -1.23175,-5.0857 -4.92542,-8.0648 -8.37064,-7.9138 z m 0.57945,5.9805 c 2.3722,-0.2175 4.11849,3.1016 4.29353,6.4373 0.35399,3.6846 -0.41241,7.3791 -0.23413,11.1002 -0.36726,21.5617 -0.57516,43.1286 -0.89684,64.6918 3.12395,0.5132 6.64748,-1.341 9.48765,1.296 1.32769,1.4134 2.03586,4.9275 0.53059,6.586 -2.61134,3.4448 -6.25592,1.3632 -9.35501,1.9015 -6.95564,-0.7919 -14.11713,1.4964 -20.92312,-1.2747 -1.04851,-1.9143 -1.48004,-5.2272 0.0698,-6.841 2.60906,-2.5956 5.97404,-2.0135 8.92217,-1.4235 1.87844,0.318 2.89432,-2.6198 2.8065,-5.1094 -0.0207,-4.6977 -0.12369,-9.3867 0.0398,-14.0848 0.14266,-14.6289 0.51259,-29.6055 0.50477,-44.0207 -3.1129,3.007 -5.28132,8.8069 -9.20142,9.5391 -1.96288,0.4153 -4.39384,-1.3995 -4.47505,-4.7058 0.34467,-3.9851 3.1985,-5.7687 4.88695,-8.3068 3.98645,-5.5164 7.73203,-11.8394 12.53851,-15.7002 0.33458,-0.043 0.66968,-0.071 1.00532,-0.085 z m -44.82028,21.6382 c -5.15611,0.3606 -8.59462,9.3996 -7.07909,16.5712 -0.66153,3.1429 -3.17919,3.2079 -4.97073,2.9212 -1.897732,-0.2749 -4.041732,-0.4202 -5.501302,1.7315 -5.24208,4.4835 -3.9982,18.6361 1.87798,20.5653 2.502492,1.8511 5.454982,-0.7863 7.916852,1.0941 1.52676,1.7706 0.1989,4.8255 0.43983,7.149 0.0257,5.5669 1.94071,11.9679 5.89924,12.9383 4.37498,1.7324 9.54978,-3.5303 9.38992,-10.6438 0.37066,-3.1139 -0.76057,-6.8271 0.57946,-9.5709 1.38052,-1.9219 3.19668,0.3515 4.78222,-0.2019 3.51133,-0.1106 7.63035,-2.9844 8.31479,-8.7742 1.21381,-6.9695 -2.63114,-15.2202 -7.56778,-14.4892 -1.93795,-0.09 -4.52151,1.0096 -5.93415,-1.6359 -0.88739,-2.2728 0.46373,-4.7976 -0.16057,-7.1808 -0.61641,-5.842 -3.85072,-11.1428 -7.98667,-10.4739 z m 0.55851,6.0018 c 2.09598,0.2148 3.52264,3.1805 3.53256,6.2248 0.23692,4.0448 -0.45794,8.1557 -0.021,12.1416 0.31312,1.9138 1.87561,1.6297 2.81349,1.0941 3.17387,0.01 6.76224,-1.3364 9.62031,1.3597 2.12981,2.254 1.52052,7.7996 -0.9006,9.0504 -2.56339,1.4377 -5.3694,0.013 -8.02157,0.1275 -1.48819,-0.5856 -3.27069,0.5307 -3.49766,3.0487 -0.86599,4.8169 0.8904,10.0575 -0.4887,14.7228 -0.66322,2.6303 -2.76756,4.5802 -4.53788,3.0699 -2.52292,-1.9086 -2.68998,-6.853 -2.31357,-10.6082 0.13771,-3.1379 0.77565,-7.2581 -1.0654,-9.5321 -2.45933,-1.9018 -5.27919,0.1986 -7.88893,-0.17 -1.794232,-0.2554 -4.208632,-0.9354 -4.635622,-4.1322 -0.5975,-4.2144 2.30814,-8.7046 5.089402,-7.1914 2.66783,-0.1055 5.6922,1.3895 8.09837,-0.8498 1.39836,-1.9422 0.20899,-5.0217 0.36304,-7.4358 -0.13704,-3.6845 -0.14129,-8.7029 2.42951,-10.4739 0.45278,-0.2591 0.93913,-0.4638 1.42419,-0.4461 z"
         id="path3245-9-55-9-8-2-2-1-88"
         inkscape:connector-curvature="0" />
    <path
         style="font-size:144px;font-style:normal;font-variant:normal;font-weight:bold;font-stretch:normal;text-indent:0;text-align:start;text-decoration:none;line-height:125%;letter-spacing:0px;word-spacing:0px;text-transform:none;direction:ltr;block-progression:tb;writing-mode:lr-tb;text-anchor:start;baseline-shift:baseline;color:#000000;fill:#ffeda1;fill-opacity:1;stroke:none;stroke-width:5;marker:none;visibility:visible;display:inline;overflow:visible;enable-background:accumulate;font-family:Comic Neue;-inkscape-font-specification:Comic Neue Bold"
         d="m -46.153528,1049.3249 c -5.66878,0.7919 -8.74481,9.0643 -12.97577,13.7579 -3.15253,4.8181 -8.22663,8.5948 -8.96026,15.8516 0.004,7.5671 5.71993,12.6033 10.20642,10.3496 -4.66287,0.5833 -9.63268,-6.6151 -7.81257,-13.8699 4.33898,-8.9022 10.76219,-14.8507 15.79483,-22.8015 1.12582,-1.3762 2.36753,-2.5963 3.74735,-3.2877 z m 2.38198,4.4 c -3.64616,0.7106 4.91352,2.4815 2.85916,7.0838 -0.32415,25.6252 -0.72638,51.2481 -1.04552,76.8735 3.88613,0.1862 10.68548,-2.0634 11.36872,6.2729 0.0179,2.4039 -4.53736,5.4336 -0.97995,3.8371 5.54929,-2.243 1.26269,-13.6064 -3.368,-10.7317 -2.87312,1.3623 -6.55176,-0.2951 -4.9349,-5.7724 0.28556,-24.0857 0.69959,-48.1673 0.97361,-72.2533 -0.53215,-3.2428 -2.75917,-5.3082 -4.87312,-5.3099 z m -6.96206,21.7842 c -1.80457,2.6438 -6.23222,7.3494 -6.51647,8.6193 2.7203,-1.3101 5.98236,-3.9217 6.51647,-8.6193 z m -40.12588,1.8566 c -5.0961,0 -8.20797,8.8676 -7.10015,15.825 -0.7413,6.0496 3.82509,1.6855 1.89829,-2.182 -0.43129,-5.6007 1.5091,-11.851 5.20186,-13.643 z m 2.18975,4.4001 c -2.58855,0.8996 3.92149,3.7078 2.13333,7.3321 0.68356,4.3891 -2.13125,14.2287 2.51296,13.0011 3.74444,-0.1216 8.50891,-1.9322 11.19317,3.2402 2.01491,3.1041 -3.5477,10.7783 0.74467,7.3156 4.43427,-6.2348 -1.40865,-13.9202 -6.02301,-11.3571 -3.9476,1.9917 -7.9431,-0.5318 -6.47851,-7.494 0.26756,-4.7583 0.24627,-12.0407 -4.08261,-12.0379 z m 26.50264,2.4162 c -0.37232,0.4512 0.32487,0.052 0,0 z m 10.07952,1.6151 c -3.81525,2.9237 -1.39506,10.5852 -2.20579,15.651 -0.13224,10.2384 -0.2652,20.4767 -0.40185,30.715 4.26639,-0.3142 1.02892,-9.9092 2.18654,-14.1333 0.14212,-10.7442 0.28263,-21.4884 0.4211,-32.2327 z m -52.553952,11.1909 c -5.58896,-0.3921 -9.24738,10.3716 -6.14588,17.2869 2.73518,6.6147 8.14996,4.2235 12.270252,5.1511 1.52919,5.7651 -0.96299,15.5036 4.05177,19.4899 0.71459,1.5841 6.17885,1.9305 5.08205,0.7138 -4.31786,0.2698 -6.7031,-6.6324 -6.65756,-12.4164 0.4753,-4.6425 0.14065,-10.9751 -4.187972,-8.6361 -4.02147,1.4692 -8.88205,-2.1113 -9.46549,-8.7558 -0.80256,-5.5003 1.32218,-11.5702 5.05283,-12.8334 z m 4.32099,4.3365 c -2.01179,-0.3056 -5.00143,0.9316 -1.27402,0.5067 1.676442,0.1447 6.420112,0.4369 5.895802,-0.3598 -1.5415,0.043 -3.08078,-0.1271 -4.621782,-0.1469 z m 15.370032,12.7678 c -4.43777,4.3394 0.78502,14.1503 -2.84449,19.6609 -1.32376,3.1916 3.67359,-1.3909 3.06447,-3.9524 0.45931,-4.7195 0.0924,-12.8378 -0.21998,-15.7085 z m 4.68873,4.4382 c -1.88124,1.7905 8.79718,0.067 3.63995,0.1575 -1.21084,-0.057 -2.43847,0.1139 -3.63995,-0.1575 z m 20.11727,14.243 c -4.79628,-0.3348 -9.39288,7.6812 -6.91964,14.6906 2.10262,6.3808 7.52819,6.8967 11.64664,6.2609 7.76489,-0.4105 15.58646,0.9896 23.30511,-0.846 -8.88114,0.9225 -17.79236,0.015 -26.6791,0.3713 -4.58331,-0.4532 -8.68838,-8.4533 -6.2063,-15.0729 0.998,-2.7588 2.85763,-4.6899 4.85329,-5.4039 z m 3.70251,4.311 c -1.36734,-0.2999 -3.9994,0.864 -1.12811,0.5369 1.52521,0.5551 7.68764,-0.3421 3.06851,-0.4558 -0.64676,-0.029 -1.29326,-0.075 -1.9404,-0.081 z"
         id="path3245-9-55-9-0-6-0-2"
         inkscape:connector-curvature="0" />
    <path
         style="opacity:0.5473251;fill:#ffffff;fill-opacity:1;fill-rule:nonzero;stroke:none"
         d="m -58.947588,984.93575 c -17.78746,0 -34.06721,10.48191 -46.656252,27.87495 l -23.03125,58.9375 c -1.65308,9.8988 -2.5625,20.3089 -2.5625,31.0625 0,33.7701 8.71158,64.2253 22.65625,85.7188 l 76.343752,-195.28125 c -8.2706,-5.37917 -17.30381,-8.3125 -26.75,-8.3125 z"
         id="rect7789-9-5-5-1"
         inkscape:connector-curvature="0" />
    <rect
         style="opacity:0.5473251;fill:#ffffff;fill-opacity:1;fill-rule:nonzero;stroke:none"
         id="rect5318-9-3"
         width="34.136597"
         height="22.5"
         x="6.7340832"
         y="1068.2327" />
    <rect
         style="opacity:0.60082302;fill:#ffffff;fill-opacity:1;fill-rule:nonzero;stroke:none;filter:url(#filter5857)"
         id="rect5318-9-4-0-2-0-5"
         width="34.136597"
         height="27.5"
         x="1471.8658"
         y="99.756104" />
</svg>
